<svg version="1.1" id="Layer_1" xmlns="http://www.w3.org/2000/svg" xmlns:xlink="http://www.w3.org/1999/xlink" x="0px" y="0px"
	 width="100%" viewBox="0 0 564 465" enable-background="new 0 0 564 465" xml:space="preserve">
<path fill="none" opacity="1.000000" stroke="#000000" stroke-linecap="round" stroke-linejoin="round" stroke-width="19.000000"
	d="
M196.000000,158.500000 
	C195.682800,161.150528 196.850052,162.309784 199.500137,162.001129 
	C207.736618,161.041840 215.399139,163.518509 222.407669,167.176880 
	C228.074844,170.135040 231.712402,175.772934 234.430939,181.532593 
	C239.016129,191.247055 243.300629,201.110229 247.472672,211.011520 
	C256.727051,232.974548 264.838318,255.495743 275.442383,276.779602 
	C280.347412,286.624573 279.286804,295.796814 279.500000,305.500000 
"/>
<path fill="none" opacity="1.000000" stroke="#000000" stroke-linecap="round" stroke-linejoin="round" stroke-width="10.000000"
	d="
M225.000000,176.000000 
	C221.265686,179.755234 220.579758,184.285095 220.345444,189.493042 
	C219.594742,206.178436 217.797089,222.818604 217.131989,239.505264 
	C216.699905,250.346146 215.744522,261.163696 215.585693,272.001251 
	C215.451126,281.184174 213.611923,290.288910 214.500000,299.500000 
"/>
<path fill="none" opacity="1.000000" stroke="#000000" stroke-linecap="round" stroke-linejoin="round" stroke-width="9.000000"
	d="
M347.500000,172.000000 
	C337.424347,173.225601 334.461517,181.286819 330.975769,188.989044 
	C319.874573,213.518661 308.680756,238.006424 297.483765,262.492584 
	C295.934875,265.879761 293.713562,269.022766 292.599213,272.531494 
	C290.595551,278.840302 286.335876,282.595795 280.500000,285.000000 
"/>
<path fill="none" opacity="1.000000" stroke="#000000" stroke-linecap="round" stroke-linejoin="round" stroke-width="3.000000"
	d="
M418.999969,352.000000 
	C419.166656,353.166656 419.748657,354.462524 419.432495,355.479004 
	C417.397919,362.020081 415.006073,368.452698 413.071472,375.021057 
	C412.177155,378.057373 410.349487,378.951752 407.514221,379.565613 
	C391.984406,382.927948 376.476440,386.401917 361.026947,390.112244 
	C358.862274,390.632080 357.288635,390.158356 355.500000,389.500000 
"/>
<path fill="none" opacity="1.000000" stroke="#000000" stroke-linecap="round" stroke-linejoin="round" stroke-width="5.000000"
	d="
M283.500000,49.500000 
	C289.033569,54.766289 296.088104,57.645229 302.533691,61.442825 
	C323.443573,73.762436 344.290070,86.218193 365.588928,97.836990 
	C376.175812,103.612267 385.772430,111.168594 396.257477,116.492989 
	C412.418671,124.699821 427.606079,134.447220 443.547241,142.911026 
	C446.744263,144.608459 447.781769,146.776794 447.490051,149.999100 
	C446.782196,157.817963 446.605591,165.837601 446.998688,173.474335 
	C447.463287,182.500137 447.064972,191.512390 447.303253,200.505219 
	C447.638214,213.147614 447.725769,225.828201 447.145264,238.506653 
	C446.803833,245.963837 448.660156,253.442307 447.536438,261.005402 
	C445.561462,274.298401 447.920197,287.648560 447.233337,301.011993 
	C446.722473,310.951080 447.623657,320.992828 447.094513,331.005005 
	C446.960693,333.536743 446.011414,334.748444 444.036926,336.055786 
	C436.042908,341.348694 427.630432,346.125244 419.313995,350.658783 
	C400.493378,360.918549 382.353271,372.327454 363.538879,382.571442 
	C356.793457,386.244141 350.802582,391.166779 343.586914,394.206360 
	C340.921783,395.329041 338.099701,396.224518 335.527863,397.553925 
	C331.042633,399.872375 327.525909,403.621582 323.038910,406.071259 
	C310.593414,412.865814 298.266266,419.886536 286.060394,427.102203 
	C283.803864,428.436188 282.288605,428.088043 280.507996,426.987061 
	C274.016418,422.973236 267.533691,418.740601 260.846893,415.297363 
	C251.112823,410.285065 242.020447,404.297119 232.516785,398.970062 
	C219.948532,391.925171 207.894547,383.811707 194.862656,377.797607 
	C186.030304,373.721527 179.480392,366.512817 170.914703,362.691193 
	C159.928268,357.789520 150.035629,351.101196 139.522293,345.458466 
	C134.062241,342.527893 129.004547,338.808929 123.432098,336.141876 
	C120.369766,334.676178 119.804436,332.838623 119.986916,329.999146 
	C120.479004,322.341583 119.069641,314.620026 120.750000,307.000000 
"/>
<path fill="none" opacity="1.000000" stroke="#000000" stroke-linecap="round" stroke-linejoin="round" stroke-width="3.000000"
	d="
M449.000000,252.000000 
	C451.038116,251.429184 451.947235,249.939224 452.518768,248.005554 
	C457.152039,232.329010 461.735992,216.636032 466.641174,201.044418 
	C467.167603,199.371140 468.020935,197.763123 466.937805,196.555786 
	C461.742920,190.764923 456.360413,185.140503 450.953796,179.544647 
	C450.468140,179.042038 449.333344,179.166672 448.500000,179.000000 
"/>
<path fill="none" opacity="1.000000" stroke="#000000" stroke-linecap="round" stroke-linejoin="round" stroke-width="3.000000"
	d="
M118.000000,227.000000 
	C113.177193,230.642654 113.384369,236.619263 111.658127,241.555298 
	C107.345238,253.887589 103.870117,266.511566 99.945053,278.982697 
	C99.537361,280.278076 98.985748,281.563568 100.032616,282.462006 
	C106.057297,287.632446 110.066551,294.741638 116.510017,299.486389 
	C117.101448,299.921906 117.833328,300.166687 118.500000,300.500000 
"/>
<path fill="none" opacity="1.000000" stroke="#000000" stroke-linecap="round" stroke-linejoin="round" stroke-width="5.000000"
	d="
M190.500000,164.500000 
	C186.138336,170.079758 179.680725,170.007141 173.510803,171.063110 
	C159.885773,173.395004 148.338104,180.176849 138.062393,189.072083 
	C132.604584,193.796707 128.735321,200.332626 121.519249,203.051102 
	C119.399162,203.849777 119.925858,206.482422 120.630989,207.399261 
	C122.645859,210.019073 121.130997,212.032242 120.647354,214.528549 
	C119.699257,219.422089 117.249657,224.351105 119.921463,229.540436 
	C120.464104,230.594376 120.000000,232.166672 120.000000,233.500000 
	C120.000000,253.833328 120.000000,274.166656 120.000000,294.500000 
	C120.000000,295.500000 120.286308,296.609772 119.952026,297.481598 
	C118.209991,302.024933 120.204483,304.898163 123.409866,308.090515 
	C131.843155,316.489441 139.852844,325.315063 147.993835,334.005768 
	C154.524323,340.977203 160.911072,348.086151 167.556091,354.945648 
	C169.462357,356.913483 170.322891,358.888641 170.000000,361.500000 
"/>
<path fill="none" opacity="1.000000" stroke="#000000" stroke-linecap="round" stroke-linejoin="round" stroke-width="4.000000"
	d="
M332.000000,398.500000 
	C330.249084,396.672119 327.822876,397.136627 326.027405,397.605042 
	C305.827240,402.874695 285.425690,407.234741 265.008392,411.539764 
	C264.109589,411.729248 263.333344,412.500031 262.500000,413.000031 
"/>
<path fill="none" opacity="1.000000" stroke="#000000" stroke-linecap="round" stroke-linejoin="round" stroke-width="3.000000"
	d="
M444.000000,277.500000 
	C439.410126,286.175018 437.797791,295.878265 434.625183,305.043335 
	C430.765137,316.194336 427.985413,327.715302 424.387756,338.964111 
	C423.541260,341.610840 422.923187,343.917114 424.000000,346.500000 
"/>
<path fill="none" opacity="1.000000" stroke="#000000" stroke-linecap="round" stroke-linejoin="round" stroke-width="20.000000"
	d="
M377.500000,161.500000 
	C374.565613,162.423874 371.550842,162.591629 368.499847,162.505798 
	C363.311462,162.359818 358.800446,164.284302 354.475800,166.960922 
	C352.648987,168.091599 350.556213,168.792603 348.459106,169.745804 
	C348.333374,170.500015 347.890869,171.543457 348.040558,172.493607 
	C351.208374,192.601257 348.595306,212.845718 349.533264,232.998459 
	C350.324493,249.998276 349.797089,267.000427 350.018890,283.999756 
	C350.060272,287.168121 350.800629,290.277283 350.085693,293.518890 
	C349.573975,295.839111 350.873138,297.759979 352.996735,299.005585 
	C361.040955,303.724121 369.667603,305.884827 379.000000,305.000000 
"/>
<path fill="none" opacity="1.000000" stroke="#000000" stroke-linecap="round" stroke-linejoin="round" stroke-width="13.000000"
	d="
M182.500000,171.000000 
	C182.274475,176.217453 179.241623,179.319962 175.044968,182.068665 
	C162.897293,190.025146 149.991653,196.654144 137.442947,203.901215 
	C135.118881,205.243408 132.695282,206.447937 130.516632,208.022995 
	C128.095322,209.773499 125.548256,210.887741 122.500000,210.500000 
"/>
<path fill="none" opacity="1.000000" stroke="#000000" stroke-linecap="round" stroke-linejoin="round" stroke-width="10.000000"
	d="
M102.000000,142.500000 
	C98.169151,144.772720 98.483337,148.643539 99.106728,151.980057 
	C101.058212,162.424683 104.068581,172.589310 107.935661,182.525040 
	C110.952324,190.275787 115.552345,196.964874 120.500000,203.500000 
"/>
<path fill="none" opacity="1.000000" stroke="#000000" stroke-linecap="round" stroke-linejoin="round" stroke-width="3.000000"
	d="
M396.500000,118.000000 
	C396.324982,120.003334 397.130768,121.567329 398.486572,123.012589 
	C413.008179,138.492325 427.491608,154.007874 442.016174,169.484833 
	C443.153900,170.697144 444.144623,172.196045 446.000000,172.500000 
"/>
<path fill="none" opacity="1.000000" stroke="#000000" stroke-linecap="round" stroke-linejoin="round" stroke-width="9.000000"
	d="
M99.500000,135.500000 
	C100.810364,138.959763 102.379524,142.087784 105.419289,144.597748 
	C108.576553,147.204742 109.684120,151.400864 111.483925,155.008026 
	C116.439240,164.939438 118.786026,175.649460 120.421677,186.511795 
	C120.895164,189.656204 121.058754,193.118179 118.000000,195.500000 
"/>
<path fill="none" opacity="1.000000" stroke="#000000" stroke-linecap="round" stroke-linejoin="round" stroke-width="3.000000"
	d="
M243.250000,40.500000 
	C240.633728,44.096172 237.306870,47.192295 234.707138,50.655491 
	C229.555939,57.517582 224.211395,64.082458 218.102417,70.103905 
	C216.947754,71.242035 215.797897,72.928520 215.413467,74.983818 
	C214.463364,80.063446 210.499359,83.163383 206.995270,86.495033 
	C204.431580,88.932579 200.955963,90.381058 199.409744,93.961021 
	C199.009857,94.886879 197.570435,95.749344 196.488571,95.932510 
	C189.457413,97.122925 184.887756,102.215172 180.084412,106.592621 
	C172.155609,113.818398 164.628983,121.507507 158.001190,130.000931 
	C156.627335,131.761505 155.430710,133.772079 156.057831,135.983597 
	C157.714661,141.826202 156.412384,146.905167 150.941818,149.370926 
	C139.461380,154.545532 136.799759,165.558182 132.574692,175.531647 
	C130.320282,180.853256 129.181610,186.652969 126.860069,191.938538 
	C125.610222,194.784134 126.578438,197.000000 127.000000,199.500000 
"/>
<path fill="none" opacity="1.000000" stroke="#000000" stroke-linecap="round" stroke-linejoin="round" stroke-width="10.000000"
	d="
M275.500000,54.499996 
	C273.166656,55.833328 270.851715,57.200226 268.494446,58.489815 
	C266.461426,59.602009 264.412872,60.443989 263.409180,62.963829 
	C262.501953,65.241547 260.253113,66.395622 258.028992,67.555595 
	C247.946426,72.814102 237.174973,76.282829 226.488174,79.965675 
	C222.601410,81.305122 218.752670,80.260941 215.000000,79.000000 
"/>
<path fill="none" opacity="1.000000" stroke="#000000" stroke-linecap="round" stroke-linejoin="round" stroke-width="3.000000"
	d="
M190.000000,377.000000 
	C189.665955,378.944763 190.754807,380.193817 191.979431,381.519012 
	C203.347519,393.820221 214.661942,406.171021 226.014191,418.486908 
	C226.569733,419.089569 227.332138,419.501556 227.999146,420.001434 
	C235.591141,418.955750 242.820740,416.123016 250.494827,415.441803 
	C251.200333,415.379150 251.833328,414.500000 252.500000,414.000000 
"/>
<path fill="none" opacity="1.000000" stroke="#000000" stroke-linecap="round" stroke-linejoin="round" stroke-width="3.000000"
	d="
M313.500000,66.000000 
	C319.045715,62.078011 325.949921,62.688843 331.984436,60.457886 
	C338.077454,58.205303 341.686646,60.758060 345.632629,65.386948 
	C354.884735,76.240326 364.804260,86.527092 374.530365,96.971718 
	C376.045410,98.598686 377.444214,100.085960 377.000000,102.500000 
"/>
<path fill="none" opacity="1.000000" stroke="#000000" stroke-linecap="round" stroke-linejoin="round" stroke-width="8.000000"
	d="
M137.500000,101.500000 
	C141.781433,103.469666 143.741821,106.804588 144.611908,111.479172 
	C146.122955,119.597458 145.852386,127.520454 144.039551,135.508972 
	C143.425522,138.214783 142.279724,140.213715 139.500000,141.000000 
"/>
<path fill="none" opacity="1.000000" stroke="#000000" stroke-linecap="round" stroke-linejoin="round" stroke-width="10.000000"
	d="
M171.000000,57.500000 
	C179.831299,60.020447 181.372406,68.023476 182.731735,75.051888 
	C184.174576,82.512123 184.179459,90.375572 178.692276,97.155617 
	C177.515747,98.609360 176.582550,101.894394 178.000000,104.500000 
"/>
<path fill="none" opacity="1.000000" stroke="#000000" stroke-linecap="round" stroke-linejoin="round" stroke-width="10.000000"
	d="
M190.500000,127.500000 
	C191.345505,133.750717 190.190506,135.959305 183.984436,138.967896 
	C180.027817,140.885986 175.902420,142.615845 172.107895,144.696762 
	C166.657364,147.685837 161.582520,148.158035 156.000000,146.000000 
"/>
<path fill="none" opacity="1.000000" stroke="#000000" stroke-linecap="round" stroke-linejoin="round" stroke-width="10.000000"
	d="
M136.000000,86.500000 
	C136.252686,93.388405 138.610886,100.379448 134.560135,107.036598 
	C133.386841,108.964851 134.120132,111.278641 134.424026,113.510345 
	C135.305191,119.981140 135.753632,126.509682 136.541519,132.994949 
	C136.832886,135.393295 136.699203,137.930191 138.470337,140.025070 
	C140.331940,142.226944 139.722076,145.063965 139.374390,147.481934 
	C138.936081,150.530258 139.569458,152.737106 142.000000,154.500000 
"/>
<path fill="none" opacity="1.000000" stroke="#000000" stroke-linecap="round" stroke-linejoin="round" stroke-width="10.000000"
	d="
M168.000000,48.500000 
	C168.721939,50.313232 168.624008,52.335857 169.905579,54.069786 
	C170.601791,55.011734 170.980194,57.161205 170.398346,57.922279 
	C165.452393,64.391518 168.964645,70.820229 170.650848,76.958565 
	C172.486496,83.641060 175.500000,90.000000 178.000000,96.500000 
"/>
<path fill="none" opacity="1.000000" stroke="#000000" stroke-linecap="round" stroke-linejoin="round" stroke-width="8.000000"
	d="
M258.500000,93.500000 
	C254.833328,93.666672 251.167572,93.857368 247.499771,93.993889 
	C242.969620,94.162498 238.650726,94.217171 234.385315,96.811432 
	C230.866272,98.951736 226.211227,98.946838 222.009903,98.420883 
	C217.798157,97.893616 213.679642,97.934349 209.495529,98.464706 
	C206.616394,98.829643 204.153336,97.612099 201.787277,95.516342 
	C211.173050,92.225098 220.532990,89.787094 230.502151,90.468552 
	C233.578964,90.678871 236.203903,91.351494 237.500000,94.500000 
"/>
<path fill="none" opacity="1.000000" stroke="#000000" stroke-linecap="round" stroke-linejoin="round" stroke-width="7.000000"
	d="
M264.000000,60.500000 
	C258.333344,56.604584 252.416672,58.358936 247.064926,60.651558 
	C240.744308,63.359234 235.129868,63.394009 229.500000,59.500000 
"/>
<path fill="none" opacity="1.000000" stroke="#000000" stroke-linecap="round" stroke-linejoin="round" stroke-width="11.000000"
	d="
M157.500000,139.500000 
	C165.291428,135.581039 172.578720,130.625320 181.005234,128.016937 
	C182.468246,127.564072 184.024399,126.963928 185.495972,127.061096 
	C193.844101,127.612328 198.142654,121.626648 203.000000,116.500000 
"/>
<path fill="none" opacity="1.000000" stroke="#000000" stroke-linecap="round" stroke-linejoin="round" stroke-width="9.000000"
	d="
M350.000000,296.500000 
	C342.819031,303.237274 334.027435,305.411041 324.500000,305.500000 
"/>
<path fill="none" opacity="1.000000" stroke="#000000" stroke-linecap="round" stroke-linejoin="round" stroke-width="9.000000"
	d="
M191.500000,305.500000 
	C198.567947,304.795227 205.795532,304.481506 211.939240,300.408356 
	C213.830353,299.154572 215.050613,299.924835 216.491470,300.520630 
	C223.866272,303.570007 231.449051,305.601013 239.500000,305.500000 
"/>
</svg>