<svg id="Livello_1" data-name="Livello 1" xmlns="http://www.w3.org/2000/svg" viewBox="0 0 183.83 118.41"><defs><style>.cls-1{fill:#fff;}.cls-2{fill:#fefefe;}.cls-3{fill:#fdfdfd;}.cls-4{fill:#fcfcfc;}.cls-5{fill:#fbfbfb;}.cls-6{fill:#fafafa;}.cls-7{fill:#f9f9f9;}.cls-8{fill:#f8f8f8;}.cls-9{fill:#f7f7f7;}.cls-10{fill:#f6f6f6;}.cls-11{fill:#f5f5f5;}.cls-12{fill:#f4f4f4;}.cls-13{fill:#f3f3f3;}.cls-14{fill:#f2f2f2;}.cls-15{fill:#f2f1f1;}.cls-16{fill:#f1f1f1;}.cls-17{fill:#f0f0f0;}.cls-18{fill:#efefef;}.cls-19{fill:#eee;}.cls-20,.cls-97{fill:#ededed;}.cls-21{fill:#ececec;}.cls-22{fill:#ebebeb;}.cls-23{fill:#eaeaea;}.cls-24{fill:#eaeae9;}.cls-25{fill:#e9e9e9;}.cls-26{fill:#e8e8e8;}.cls-27{fill:#e7e7e7;}.cls-28{fill:#e6e6e6;}.cls-29{fill:#e5e5e5;}.cls-30{fill:#e5e4e4;}.cls-31{fill:#e4e4e4;}.cls-32{fill:#e3e3e3;}.cls-33{fill:#e2e2e2;}.cls-34{fill:#e2e2e1;}.cls-35{fill:#e1e1e1;}.cls-36{fill:#e0e0e0;}.cls-37{fill:#e0dfdf;}.cls-38{fill:#dfdfdf;}.cls-39{fill:#dedede;}.cls-40{fill:#ddd;}.cls-41{fill:#dddddc;}.cls-42{fill:#dcdcdc;}.cls-43{fill:#dbdbdb;}.cls-44{fill:#dadada;}.cls-45{fill:#dadad9;}.cls-46{fill:#d9d9d9;}.cls-47{fill:#d8d8d8;}.cls-48{fill:#d7d7d7;}.cls-49{fill:#d7d7d6;}.cls-50{fill:#d6d6d6;}.cls-51{fill:#d5d5d5;}.cls-52{fill:#d4d4d4;}.cls-53{fill:#d4d4d3;}.cls-54{fill:#d3d3d3;}.cls-55{fill:#d2d2d2;}.cls-56{fill:#d1d1d1;}.cls-57{fill:#d1d0d0;}.cls-58{fill:#d0d0cf;}.cls-59{fill:#cfcfcf;}.cls-60{fill:#cecece;}.cls-61{fill:#cdcdcd;}.cls-62{fill:#cdcdcc;}.cls-63{fill:#ccc;}.cls-64{fill:#cbcbcb;}.cls-65{fill:#cacaca;}.cls-66{fill:#cac9c9;}.cls-67{fill:#c9c9c8;}.cls-68{fill:#c8c8c8;}.cls-69{fill:#c7c7c7;}.cls-70{fill:#c7c6c6;}.cls-71{fill:#c6c6c5;}.cls-72{fill:#c5c5c5;}.cls-73{fill:#c4c4c4;}.cls-74{fill:#c3c3c3;}.cls-75{fill:#c3c3c2;}.cls-76{fill:#c2c2c2;}.cls-77{fill:#c1c1c1;}.cls-78{fill:silver;}.cls-79{fill:#c0c0bf;}.cls-80{fill:#bfbfbe;}.cls-81{fill:#bebebe;}.cls-82{fill:#bdbdbd;}.cls-83{fill:#bdbcbc;}.cls-84{fill:#bcbcbb;}.cls-85{fill:#bbb;}.cls-86{fill:#bababa;}.cls-87{fill:#bab9b9;}.cls-88{fill:#b9b9b8;}.cls-89{fill:#b8b8b8;}.cls-90{fill:#b7b7b7;}.cls-91{fill:#b6b6b6;}.cls-92{fill:#b6b5b5;}.cls-93{fill:#b5b5b4;}.cls-94{fill:#b4b4b4;}.cls-95{fill:#b3b3b3;}.cls-96{fill:#b2b2b2;}.cls-97{stroke:#ededed;stroke-miterlimit:10;}</style></defs><path class="cls-1" d="M181.58,61.65a7.71,7.71,0,0,1,0,10.9L176.13,78l-5.46,5.46a7.71,7.71,0,0,1-10.9,0L138,61.65a7.71,7.71,0,0,0-10.9,0h0a7.71,7.71,0,0,0,0,10.9l21.81,21.81a7.71,7.71,0,0,1,0,10.9l-5.45,5.45L138,116.16a7.71,7.71,0,0,1-10.9,0L110.71,99.8,99.81,88.9,88.91,78,78,67.1l-5.46-5.46a7.71,7.71,0,0,0-10.9,0h0a7.71,7.71,0,0,0,0,10.9L67.1,78,78,88.91l5.45,5.45a7.71,7.71,0,0,1,0,10.9l-10.9,10.9a7.71,7.71,0,0,1-10.9,0l-5.45-5.45L45.3,99.81,34.39,88.9,23.49,78,18,72.55a7.71,7.71,0,0,1,0-10.9l5.45-5.45L56.2,23.49,61.65,18a7.71,7.71,0,0,1,10.9,0L78,23.49l10.9,10.9,5.46,5.46a7.71,7.71,0,0,0,10.9,0l5.45-5.45,10.91-10.91L127.07,18A7.71,7.71,0,0,1,138,18Z"/><path class="cls-2" d="M56.05,23.34l5.45-5.45a7.71,7.71,0,0,1,10.9,0l5.45,5.45,10.9,10.9,5.46,5.46a7.71,7.71,0,0,0,10.9,0l5.45-5.45,10.91-10.91,5.45-5.45a7.71,7.71,0,0,1,10.9,0L181.43,61.5a7.71,7.71,0,0,1,0,10.9L176,77.85l-5.46,5.46a7.71,7.71,0,0,1-10.9,0L137.81,61.5a7.71,7.71,0,0,0-10.9,0h0a7.71,7.71,0,0,0,0,10.9l21.81,21.81a7.71,7.71,0,0,1,0,10.9l-5.45,5.45L137.82,116a7.71,7.71,0,0,1-10.9,0L110.56,99.65l-10.9-10.9-10.9-10.9L77.86,67,72.4,61.49a7.71,7.71,0,0,0-10.9,0h0a7.71,7.71,0,0,0,0,10.9L67,77.86l10.9,10.9,5.45,5.45a7.71,7.71,0,0,1,0,10.9L72.4,116a7.71,7.71,0,0,1-10.9,0l-5.45-5.45-10.9-10.9L34.26,88.77l-3.4-3.4L23.39,77.9,18,72.46a7.73,7.73,0,0,1-.06-10.86s5.37-5.45,5.38-5.48l1.51-1.52,4.44-4.44Z"/><path class="cls-2" d="M55.9,23.19l5.45-5.45a7.71,7.71,0,0,1,10.9,0l5.45,5.45,10.9,10.9,5.46,5.46a7.71,7.71,0,0,0,10.9,0l5.45-5.45,10.91-10.91,5.45-5.45a7.71,7.71,0,0,1,10.9,0l43.61,43.61a7.71,7.71,0,0,1,0,10.9l-5.45,5.45-5.46,5.46a7.71,7.71,0,0,1-10.9,0L137.66,61.35a7.71,7.71,0,0,0-10.9,0h0a7.71,7.71,0,0,0,0,10.9l21.81,21.81a7.71,7.71,0,0,1,0,10.9l-5.45,5.45-5.45,5.45a7.71,7.71,0,0,1-10.9,0L110.41,99.5,99.51,88.6,88.61,77.7,77.71,66.8l-5.46-5.46a7.71,7.71,0,0,0-10.9,0h0a7.71,7.71,0,0,0,0,10.9l5.46,5.46,10.9,10.9,5.45,5.45a7.71,7.71,0,0,1,0,10.9l-10.9,10.9a7.71,7.71,0,0,1-10.9,0l-5.45-5.45L45,99.51,34.14,88.65l-3.4-3.4L23.29,77.8l-5.43-5.43a8.1,8.1,0,0,1-1.18-1.51,7.68,7.68,0,0,1,1.06-9.3c0-.05,5.29-5.46,5.31-5.51l1.52-1.53L29,50.07Z"/><path class="cls-3" d="M55.75,23l5.45-5.45a7.71,7.71,0,0,1,10.9,0L77.55,23l10.9,10.9,5.46,5.46a7.71,7.71,0,0,0,10.9,0L110.26,34,121.17,23l5.45-5.45a7.71,7.71,0,0,1,10.9,0L181.13,61.2a7.71,7.71,0,0,1,0,10.9l-5.45,5.45L170.22,83a7.71,7.71,0,0,1-10.9,0L137.51,61.2a7.71,7.71,0,0,0-10.9,0h0a7.71,7.71,0,0,0,0,10.9l21.81,21.81a7.71,7.71,0,0,1,0,10.9L143,110.26l-5.45,5.45a7.71,7.71,0,0,1-10.9,0L110.26,99.35l-10.9-10.9-10.9-10.9-10.9-10.9L72.1,61.19a7.71,7.71,0,0,0-10.9,0h0a7.71,7.71,0,0,0,0,10.9l5.46,5.46,10.9,10.9L83,93.91a7.71,7.71,0,0,1,0,10.9l-10.9,10.9a7.71,7.71,0,0,1-10.9,0l-5.45-5.45-10.9-10.9L34,88.53l-3.39-3.39L23.19,77.7l-5.41-5.41a7.74,7.74,0,0,1-.19-10.77c-.07-.07,5.21-5.46,5.25-5.55l1.51-1.53L28.81,50Z"/><path class="cls-4" d="M55.6,22.89l5.45-5.45a7.71,7.71,0,0,1,10.9,0l5.45,5.45,10.9,10.9,5.46,5.46a7.71,7.71,0,0,0,10.9,0l5.45-5.45L121,22.89l5.45-5.45a7.71,7.71,0,0,1,10.9,0L181,61.05A7.71,7.71,0,0,1,181,72l-5.45,5.45-5.46,5.46a7.71,7.71,0,0,1-10.9,0L137.36,61.05a7.71,7.71,0,0,0-10.9,0h0a7.71,7.71,0,0,0,0,10.9l21.81,21.81a7.71,7.71,0,0,1,0,10.9l-5.45,5.45-5.45,5.45a7.71,7.71,0,0,1-10.9,0L110.11,99.2,99.21,88.3,88.31,77.4,77.41,66.5,72,61a7.71,7.71,0,0,0-10.9,0h0A7.71,7.71,0,0,0,61,72l5.46,5.46,10.9,10.9,5.45,5.45a7.71,7.71,0,0,1,0,10.9L72,115.56a7.71,7.71,0,0,1-10.9,0l-5.45-5.45L44.7,99.21,33.89,88.4,30.51,85,23.09,77.6l-5.4-5.4a8,8,0,0,1-1.17-1.5,7.68,7.68,0,0,1,.92-9.22c-.09-.1,5.13-5.47,5.18-5.58s1.49-1.52,1.52-1.54l4.46-4.47Z"/><path class="cls-4" d="M55.45,22.74l5.45-5.45a7.71,7.71,0,0,1,10.9,0l5.45,5.45,10.9,10.9,5.46,5.46a7.71,7.71,0,0,0,10.9,0L110,33.65l10.91-10.91,5.45-5.45a7.71,7.71,0,0,1,10.9,0L180.83,60.9a7.71,7.71,0,0,1,0,10.9l-5.45,5.45-5.46,5.46a7.71,7.71,0,0,1-10.9,0L137.21,60.9a7.71,7.71,0,0,0-10.9,0h0a7.71,7.71,0,0,0,0,10.9l21.81,21.81a7.71,7.71,0,0,1,0,10.9L142.67,110l-5.45,5.45a7.71,7.71,0,0,1-10.9,0L110,99.05l-10.9-10.9-10.9-10.9-10.9-10.9L71.8,60.89a7.71,7.71,0,0,0-10.9,0h0a7.71,7.71,0,0,0,0,10.9l5.46,5.46,10.9,10.9,5.45,5.45a7.71,7.71,0,0,1,0,10.9l-10.9,10.9a7.71,7.71,0,0,1-10.9,0L55.45,110l-10.9-10.9L33.77,88.28,30.4,84.91,23,77.5l-5.38-5.38a8,8,0,0,1-1.18-1.5,7.68,7.68,0,0,1,.86-9.19c-.11-.11,5.05-5.47,5.11-5.61l1.52-1.54L28.4,49.8Z"/><path class="cls-5" d="M55.31,22.6l5.45-5.45a7.71,7.71,0,0,1,10.9,0l5.45,5.45L88,33.5,93.47,39a7.71,7.71,0,0,0,10.9,0l5.45-5.45L120.73,22.6l5.45-5.45a7.71,7.71,0,0,1,10.9,0l43.61,43.61a7.71,7.71,0,0,1,0,10.9l-5.45,5.45-5.46,5.46a7.71,7.71,0,0,1-10.9,0L137.07,60.76a7.71,7.71,0,0,0-10.9,0h0a7.71,7.71,0,0,0,0,10.9L148,93.47a7.71,7.71,0,0,1,0,10.9l-5.45,5.45-5.45,5.45a7.71,7.71,0,0,1-10.9,0L109.82,98.91,98.92,88,88,77.11l-10.9-10.9-5.46-5.46a7.71,7.71,0,0,0-10.9,0h0a7.71,7.71,0,0,0,0,10.9l5.46,5.46L77.11,88l5.45,5.45a7.71,7.71,0,0,1,0,10.9l-10.9,10.9a7.71,7.71,0,0,1-10.9,0l-5.45-5.45-10.9-10.9L33.65,88.16l-3.37-3.37L22.9,77.41,17.52,72a7.83,7.83,0,0,1-1.17-1.49c-1.65-2.78-1.6-6.75.8-9.15-.14-.14,5-5.47,5-5.64s1.48-1.52,1.51-1.55l4.49-4.49Z"/><path class="cls-6" d="M55.16,22.45,60.61,17a7.71,7.71,0,0,1,10.9,0L77,22.45l10.9,10.9,5.46,5.46a7.71,7.71,0,0,0,10.9,0l5.45-5.45,10.91-10.91L126,17a7.71,7.71,0,0,1,10.9,0l43.61,43.61a7.71,7.71,0,0,1,0,10.9L175.09,77l-5.46,5.46a7.71,7.71,0,0,1-10.9,0L136.92,60.61a7.71,7.71,0,0,0-10.9,0h0a7.71,7.71,0,0,0,0,10.9l21.81,21.81a7.71,7.71,0,0,1,0,10.9l-5.45,5.45-5.45,5.45a7.71,7.71,0,0,1-10.9,0L109.67,98.76l-10.9-10.9L87.87,77,77,66.06,71.51,60.6a7.71,7.71,0,0,0-10.9,0h0a7.71,7.71,0,0,0,0,10.9L66.06,77,77,87.87l5.45,5.45a7.71,7.71,0,0,1,0,10.9l-10.9,10.9a7.71,7.71,0,0,1-10.9,0l-5.45-5.45-10.9-10.9L33.52,88l-3.35-3.35L22.8,77.31,17.44,72a7.89,7.89,0,0,1-1.18-1.49c-1.63-2.76-1.63-6.74.74-9.11-.16-.16,4.88-5.48,5-5.67s1.47-1.52,1.52-1.57L28,49.62Z"/><path class="cls-7" d="M55,22.3l5.45-5.45a7.71,7.71,0,0,1,10.9,0l5.45,5.45,10.9,10.9,5.46,5.46a7.71,7.71,0,0,0,10.9,0l5.45-5.45L120.43,22.3l5.45-5.45a7.71,7.71,0,0,1,10.9,0l43.61,43.61a7.71,7.71,0,0,1,0,10.9l-5.45,5.45-5.46,5.46a7.71,7.71,0,0,1-10.9,0L136.77,60.46a7.71,7.71,0,0,0-10.9,0h0a7.71,7.71,0,0,0,0,10.9l21.81,21.81a7.71,7.71,0,0,1,0,10.9l-5.45,5.45L136.78,115a7.71,7.71,0,0,1-10.9,0L109.52,98.61l-10.9-10.9-10.9-10.9-10.9-10.9-5.46-5.46a7.71,7.71,0,0,0-10.9,0h0a7.71,7.71,0,0,0,0,10.9l5.46,5.46,10.9,10.9,5.45,5.45a7.71,7.71,0,0,1,0,10.9L71.36,115a7.71,7.71,0,0,1-10.9,0L55,109.52l-10.9-10.9L33.4,87.91l-3.35-3.35L22.7,77.21l-5.35-5.35a8.19,8.19,0,0,1-1.17-1.48c-1.62-2.73-1.68-6.73.67-9.07-.18-.19,4.8-5.49,4.91-5.71,0-.06,1.46-1.52,1.51-1.57l4.51-4.5Z"/><path class="cls-7" d="M54.86,22.15l5.45-5.45a7.71,7.71,0,0,1,10.9,0l5.45,5.45,10.9,10.9L93,38.51a7.71,7.71,0,0,0,10.9,0l5.45-5.45,10.91-10.91,5.45-5.45a7.71,7.71,0,0,1,10.9,0l43.61,43.61a7.71,7.71,0,0,1,0,10.9l-5.45,5.45-5.46,5.46a7.71,7.71,0,0,1-10.9,0L136.62,60.31a7.71,7.71,0,0,0-10.9,0h0a7.71,7.71,0,0,0,0,10.9L147.53,93a7.71,7.71,0,0,1,0,10.9l-5.45,5.45-5.45,5.45a7.71,7.71,0,0,1-10.9,0L109.37,98.46l-10.9-10.9-10.9-10.9-10.9-10.9L71.21,60.3a7.71,7.71,0,0,0-10.9,0h0a7.71,7.71,0,0,0,0,10.9l5.46,5.46,10.9,10.9L82.11,93a7.71,7.71,0,0,1,0,10.9l-10.9,10.9a7.71,7.71,0,0,1-10.9,0l-5.45-5.45L44,98.47,33.28,87.79l-3.34-3.34L22.6,77.11l-5.33-5.33A8.09,8.09,0,0,1,16.1,70.3c-1.6-2.7-1.72-6.72.6-9-.21-.2,4.72-5.48,4.84-5.73,0-.07,1.46-1.52,1.52-1.58l4.51-4.51Z"/><path class="cls-8" d="M54.71,22l5.45-5.45a7.71,7.71,0,0,1,10.9,0L76.51,22l10.9,10.9,5.46,5.46a7.71,7.71,0,0,0,10.9,0l5.45-5.45L120.13,22l5.45-5.45a7.71,7.71,0,0,1,10.9,0l43.61,43.61a7.71,7.71,0,0,1,0,10.9l-5.45,5.45L169.18,82a7.71,7.71,0,0,1-10.9,0L136.47,60.16a7.71,7.71,0,0,0-10.9,0h0a7.71,7.71,0,0,0,0,10.9l21.81,21.81a7.71,7.71,0,0,1,0,10.9l-5.45,5.45-5.45,5.45a7.71,7.71,0,0,1-10.9,0L109.22,98.31l-10.9-10.9-10.9-10.9-10.9-10.9-5.46-5.46a7.71,7.71,0,0,0-10.9,0h0a7.71,7.71,0,0,0,0,10.9l5.46,5.46,10.9,10.9L82,92.87a7.71,7.71,0,0,1,0,10.9l-10.9,10.9a7.71,7.71,0,0,1-10.9,0l-5.45-5.45-10.9-10.9L33.15,87.66l-3.33-3.33L22.5,77l-5.32-5.32A8.12,8.12,0,0,1,16,70.22c-1.58-2.67-1.75-6.7.54-9-.23-.23,4.64-5.49,4.77-5.77,0-.07,1.46-1.51,1.52-1.58l4.53-4.52Z"/><path class="cls-9" d="M54.56,21.85,60,16.4a7.71,7.71,0,0,1,10.9,0l5.45,5.45,10.9,10.9,5.46,5.46a7.71,7.71,0,0,0,10.9,0l5.45-5.45L120,21.85l5.45-5.45a7.71,7.71,0,0,1,10.9,0L179.94,60a7.71,7.71,0,0,1,0,10.9l-5.45,5.45L169,81.82a7.71,7.71,0,0,1-10.9,0L136.32,60a7.71,7.71,0,0,0-10.9,0h0a7.71,7.71,0,0,0,0,10.9l21.81,21.81a7.71,7.71,0,0,1,0,10.9l-5.45,5.45-5.45,5.45a7.71,7.71,0,0,1-10.9,0L109.07,98.16l-10.9-10.9-10.9-10.9-10.9-10.9L70.91,60A7.71,7.71,0,0,0,60,60h0a7.71,7.71,0,0,0,0,10.9l5.46,5.46,10.9,10.9,5.45,5.45a7.71,7.71,0,0,1,0,10.9l-10.9,10.9a7.71,7.71,0,0,1-10.9,0l-5.45-5.45-10.9-10.9L33,87.54l-3.32-3.32-7.3-7.3L17.1,71.61a8.48,8.48,0,0,1-1.17-1.47c-1.57-2.64-1.8-6.69.47-9-.25-.25,4.57-5.5,4.71-5.8,0-.09,1.45-1.52,1.52-1.59l4.53-4.53Z"/><path class="cls-9" d="M54.42,21.71l5.45-5.45a7.71,7.71,0,0,1,10.9,0l5.45,5.45,10.9,10.9,5.46,5.46a7.71,7.71,0,0,0,10.9,0l5.45-5.45,10.91-10.91,5.45-5.45a7.71,7.71,0,0,1,10.9,0L179.8,59.87a7.71,7.71,0,0,1,0,10.9l-5.45,5.45-5.46,5.46a7.71,7.71,0,0,1-10.9,0L136.18,59.87a7.71,7.71,0,0,0-10.9,0h0a7.71,7.71,0,0,0,0,10.9l21.81,21.81a7.71,7.71,0,0,1,0,10.9l-5.45,5.45-5.45,5.45a7.71,7.71,0,0,1-10.9,0L108.93,98,98,87.12l-10.9-10.9-10.9-10.9-5.46-5.46a7.71,7.71,0,0,0-10.9,0h0a7.71,7.71,0,0,0,0,10.9l5.46,5.46,10.9,10.9,5.45,5.45a7.71,7.71,0,0,1,0,10.9l-10.9,10.9a7.71,7.71,0,0,1-10.9,0l-5.45-5.45L43.52,98,32.91,87.42,29.59,84.1l-7.28-7.28L17,71.52a8.52,8.52,0,0,1-1.17-1.46c-1.55-2.62-1.83-6.68.42-8.92-.28-.28,4.48-5.5,4.63-5.84.05-.09,1.44-1.51,1.52-1.59L27,49.17Z"/><path class="cls-10" d="M54.27,21.56l5.45-5.45a7.71,7.71,0,0,1,10.9,0l5.45,5.45L87,32.46l5.46,5.46a7.71,7.71,0,0,0,10.9,0l5.45-5.45,10.91-10.91,5.45-5.45a7.71,7.71,0,0,1,10.9,0l43.61,43.61a7.71,7.71,0,0,1,0,10.9l-5.45,5.45-5.46,5.46a7.71,7.71,0,0,1-10.9,0L136,59.72a7.71,7.71,0,0,0-10.9,0h0a7.71,7.71,0,0,0,0,10.9l21.81,21.81a7.71,7.71,0,0,1,0,10.9l-5.45,5.45L136,114.23a7.71,7.71,0,0,1-10.9,0L108.78,97.87,97.88,87,87,76.07l-10.9-10.9-5.46-5.46a7.71,7.71,0,0,0-10.9,0h0a7.71,7.71,0,0,0,0,10.9l5.46,5.46L76.07,87l5.45,5.45a7.71,7.71,0,0,1,0,10.9l-10.9,10.9a7.71,7.71,0,0,1-10.9,0l-5.45-5.45-10.9-10.9L32.79,87.3,29.48,84l-7.27-7.27-5.28-5.28A8.42,8.42,0,0,1,15.76,70c-1.53-2.59-1.88-6.67.35-8.89-.3-.3,4.4-5.5,4.57-5.86,0-.1,1.43-1.52,1.51-1.6l4.56-4.55Z"/><path class="cls-11" d="M54.12,21.41,59.57,16a7.71,7.71,0,0,1,10.9,0l5.45,5.45,10.9,10.9,5.46,5.46a7.71,7.71,0,0,0,10.9,0l5.45-5.45,10.91-10.91L125,16a7.71,7.71,0,0,1,10.9,0L179.5,59.57a7.71,7.71,0,0,1,0,10.9l-5.45,5.45-5.46,5.46a7.71,7.71,0,0,1-10.9,0L135.88,59.57a7.71,7.71,0,0,0-10.9,0h0a7.71,7.71,0,0,0,0,10.9l21.81,21.81a7.71,7.71,0,0,1,0,10.9l-5.45,5.45-5.45,5.45a7.71,7.71,0,0,1-10.9,0L108.63,97.72l-10.9-10.9-10.9-10.9L75.93,65l-5.46-5.46a7.71,7.71,0,0,0-10.9,0h0a7.71,7.71,0,0,0,0,10.9L65,75.93l10.9,10.9,5.45,5.45a7.71,7.71,0,0,1,0,10.9l-10.9,10.9a7.71,7.71,0,0,1-10.9,0l-5.45-5.45-10.9-10.9L32.66,87.17l-3.3-3.3-7.25-7.25-5.27-5.27a8.45,8.45,0,0,1-1.16-1.46c-1.52-2.55-1.92-6.64.28-8.84-.32-.32,4.32-5.51,4.5-5.89.05-.11,1.43-1.52,1.52-1.61L26.54,49Z"/><path class="cls-12" d="M54,21.26l5.45-5.45a7.71,7.71,0,0,1,10.9,0l5.45,5.45,10.9,10.9,5.46,5.46a7.71,7.71,0,0,0,10.9,0l5.45-5.45,10.91-10.91,5.45-5.45a7.71,7.71,0,0,1,10.9,0l43.61,43.61a7.71,7.71,0,0,1,0,10.9l-5.45,5.45-5.46,5.46a7.71,7.71,0,0,1-10.9,0L135.73,59.42a7.71,7.71,0,0,0-10.9,0h0a7.71,7.71,0,0,0,0,10.9l21.81,21.81a7.71,7.71,0,0,1,0,10.9l-5.45,5.45-5.45,5.45a7.71,7.71,0,0,1-10.9,0L108.48,97.57l-10.9-10.9-10.9-10.9-10.9-10.9-5.46-5.46a7.71,7.71,0,0,0-10.9,0h0a7.71,7.71,0,0,0,0,10.9l5.46,5.46,10.9,10.9,5.45,5.45a7.71,7.71,0,0,1,0,10.9l-10.9,10.9a7.71,7.71,0,0,1-10.9,0L54,108.48l-10.9-10.9L32.54,87.05l-3.3-3.3L22,76.52l-5.26-5.26a8.48,8.48,0,0,1-1.16-1.45c-1.5-2.52-1.95-6.63.22-8.8-.34-.35,4.24-5.51,4.43-5.93.06-.11,1.43-1.52,1.52-1.61l4.58-4.58Z"/><path class="cls-12" d="M53.82,21.11l5.45-5.45a7.71,7.71,0,0,1,10.9,0l5.45,5.45L86.52,32,92,37.47a7.71,7.71,0,0,0,10.9,0L108.33,32l10.91-10.91,5.45-5.45a7.71,7.71,0,0,1,10.9,0L179.2,59.27a7.71,7.71,0,0,1,0,10.9l-5.45,5.45-5.46,5.46a7.71,7.71,0,0,1-10.9,0L135.58,59.27a7.71,7.71,0,0,0-10.9,0h0a7.71,7.71,0,0,0,0,10.9L146.49,92a7.71,7.71,0,0,1,0,10.9L141,108.33l-5.45,5.45a7.71,7.71,0,0,1-10.9,0L108.33,97.42l-10.9-10.9-10.9-10.9-10.9-10.9-5.46-5.46a7.71,7.71,0,0,0-10.9,0h0a7.71,7.71,0,0,0,0,10.9l5.46,5.46,10.9,10.9L81.07,92a7.71,7.71,0,0,1,0,10.9l-10.9,10.9a7.71,7.71,0,0,1-10.9,0l-5.45-5.45-10.9-10.9-10.5-10.5-3.29-3.29-7.21-7.21-5.25-5.25a8.29,8.29,0,0,1-1.16-1.45c-1.48-2.49-2-6.62.15-8.76-.36-.37,4.16-5.52,4.37-6,.06-.13,1.41-1.52,1.52-1.62l4.58-4.59Z"/><path class="cls-13" d="M53.67,21l5.45-5.45a7.71,7.71,0,0,1,10.9,0L75.47,21l10.9,10.9,5.46,5.46a7.71,7.71,0,0,0,10.9,0l5.45-5.45L119.09,21l5.45-5.45a7.71,7.71,0,0,1,10.9,0l43.61,43.61a7.71,7.71,0,0,1,0,10.9l-5.45,5.45-5.46,5.46a7.71,7.71,0,0,1-10.9,0L135.43,59.12a7.71,7.71,0,0,0-10.9,0h0a7.71,7.71,0,0,0,0,10.9l21.81,21.81a7.71,7.71,0,0,1,0,10.9l-5.45,5.45-5.45,5.45a7.71,7.71,0,0,1-10.9,0L108.18,97.27l-10.9-10.9-10.9-10.9-10.9-10.9L70,59.11a7.71,7.71,0,0,0-10.9,0h0a7.71,7.71,0,0,0,0,10.9l5.46,5.46,10.9,10.9,5.45,5.45a7.71,7.71,0,0,1,0,10.9L70,113.63a7.71,7.71,0,0,1-10.9,0l-5.45-5.45-10.9-10.9L32.29,86.8,29,83.52l-7.19-7.19-5.24-5.24a7.82,7.82,0,0,1-1.15-1.44c-1.47-2.47-2-6.6.08-8.73-.39-.39,4.08-5.52,4.3-6,.06-.13,1.41-1.51,1.52-1.62l4.59-4.6Z"/><path class="cls-14" d="M53.53,20.82,59,15.37a7.71,7.71,0,0,1,10.9,0l5.45,5.45,10.9,10.9,5.46,5.46a7.71,7.71,0,0,0,10.9,0L108,31.73,119,20.82l5.45-5.45a7.71,7.71,0,0,1,10.9,0L178.91,59a7.71,7.71,0,0,1,0,10.9l-5.45,5.45L168,80.79a7.71,7.71,0,0,1-10.9,0L135.29,59a7.71,7.71,0,0,0-10.9,0h0a7.71,7.71,0,0,0,0,10.9L146.2,91.69a7.71,7.71,0,0,1,0,10.9L140.75,108l-5.45,5.45a7.71,7.71,0,0,1-10.9,0L108,97.13l-10.9-10.9-10.9-10.9-10.9-10.9L69.88,59A7.71,7.71,0,0,0,59,59h0a7.71,7.71,0,0,0,0,10.9l5.46,5.46,10.9,10.9,5.45,5.45a7.71,7.71,0,0,1,0,10.9l-10.9,10.9a7.71,7.71,0,0,1-10.9,0L53.53,108l-10.9-10.9L32.17,86.68,28.9,83.41l-7.18-7.18L16.5,71a8.72,8.72,0,0,1-1.16-1.44c-1.45-2.44-2.07-6.59,0-8.69-.42-.41,4-5.52,4.23-6,.06-.14,1.4-1.52,1.51-1.63l4.61-4.61Z"/><path class="cls-15" d="M53.38,20.67l5.45-5.45a7.71,7.71,0,0,1,10.9,0l5.45,5.45,10.9,10.9L91.54,37a7.71,7.71,0,0,0,10.9,0l5.45-5.45L118.8,20.67l5.45-5.45a7.71,7.71,0,0,1,10.9,0l43.61,43.61a7.71,7.71,0,0,1,0,10.9l-5.45,5.45-5.46,5.46a7.71,7.71,0,0,1-10.9,0L135.14,58.83a7.71,7.71,0,0,0-10.9,0h0a7.71,7.71,0,0,0,0,10.9l21.81,21.81a7.71,7.71,0,0,1,0,10.9l-5.45,5.45-5.45,5.45a7.71,7.71,0,0,1-10.9,0L107.89,97,97,86.08l-10.9-10.9-10.9-10.9-5.46-5.46a7.71,7.71,0,0,0-10.9,0h0a7.71,7.71,0,0,0,0,10.9l5.46,5.46,10.9,10.9,5.45,5.45a7.71,7.71,0,0,1,0,10.9l-10.9,10.9a7.71,7.71,0,0,1-10.9,0l-5.45-5.45L42.48,97,32.05,86.56l-3.27-3.27-7.16-7.16-5.21-5.21a8.58,8.58,0,0,1-1.15-1.43c-1.43-2.41-2.12-6.58,0-8.65-.44-.44,3.91-5.53,4.16-6.06.07-.14,1.4-1.51,1.52-1.63l4.61-4.62Z"/><path class="cls-16" d="M53.23,20.52l5.45-5.45a7.71,7.71,0,0,1,10.9,0L75,20.52l10.9,10.9,5.46,5.46a7.71,7.71,0,0,0,10.9,0l5.45-5.45,10.91-10.91,5.45-5.45a7.71,7.71,0,0,1,10.9,0l43.61,43.61a7.71,7.71,0,0,1,0,10.9L173.16,75l-5.46,5.46a7.71,7.71,0,0,1-10.9,0L135,58.68a7.71,7.71,0,0,0-10.9,0h0a7.71,7.71,0,0,0,0,10.9L145.9,91.39a7.71,7.71,0,0,1,0,10.9l-5.45,5.45L135,113.19a7.71,7.71,0,0,1-10.9,0L107.74,96.83l-10.9-10.9L85.94,75,75,64.13l-5.46-5.46a7.71,7.71,0,0,0-10.9,0h0a7.71,7.71,0,0,0,0,10.9L64.13,75,75,85.94l5.45,5.45a7.71,7.71,0,0,1,0,10.9l-10.9,10.9a7.71,7.71,0,0,1-10.9,0l-5.45-5.45-10.9-10.9L31.92,86.43l-3.25-3.25L21.52,76l-5.19-5.19a8.65,8.65,0,0,1-1.16-1.43C13.76,67,13,62.84,15.07,60.8c-.46-.46,3.83-5.54,4.09-6.09.08-.15,1.4-1.52,1.52-1.64l4.63-4.63Z"/><path class="cls-17" d="M53.08,20.37l5.45-5.45a7.71,7.71,0,0,1,10.9,0l5.45,5.45,10.9,10.9,5.46,5.46a7.71,7.71,0,0,0,10.9,0l5.45-5.45L118.5,20.37,124,14.92a7.71,7.71,0,0,1,10.9,0l43.61,43.61a7.71,7.71,0,0,1,0,10.9L173,74.88l-5.46,5.46a7.71,7.71,0,0,1-10.9,0L134.84,58.53a7.71,7.71,0,0,0-10.9,0h0a7.71,7.71,0,0,0,0,10.9l21.81,21.81a7.71,7.71,0,0,1,0,10.9l-5.45,5.45L134.85,113a7.71,7.71,0,0,1-10.9,0L107.59,96.68l-10.9-10.9-10.9-10.9L74.89,64l-5.46-5.46a7.71,7.71,0,0,0-10.9,0h0a7.71,7.71,0,0,0,0,10.9L64,74.89l10.9,10.9,5.45,5.45a7.71,7.71,0,0,1,0,10.9L69.43,113a7.71,7.71,0,0,1-10.9,0l-5.45-5.45-10.9-10.9L31.8,86.31l-3.25-3.25-7.12-7.12-5.19-5.19a9.05,9.05,0,0,1-1.15-1.42c-1.4-2.35-2.19-6.55-.17-8.58-.48-.48,3.75-5.53,4-6.11A21.36,21.36,0,0,1,20.47,53l4.63-4.64Z"/><path class="cls-18" d="M52.93,20.22l5.45-5.45a7.71,7.71,0,0,1,10.9,0l5.45,5.45,10.9,10.9,5.46,5.46a7.71,7.71,0,0,0,10.9,0l5.45-5.45,10.91-10.91,5.45-5.45a7.71,7.71,0,0,1,10.9,0l43.61,43.61a7.71,7.71,0,0,1,0,10.9l-5.45,5.45-5.46,5.46a7.71,7.71,0,0,1-10.9,0L134.69,58.38a7.71,7.71,0,0,0-10.9,0h0a7.71,7.71,0,0,0,0,10.9L145.6,91.09a7.71,7.71,0,0,1,0,10.9l-5.45,5.45-5.45,5.45a7.71,7.71,0,0,1-10.9,0L107.44,96.53l-10.9-10.9-10.9-10.9-10.9-10.9-5.46-5.46a7.71,7.71,0,0,0-10.9,0h0a7.71,7.71,0,0,0,0,10.9l5.46,5.46,10.9,10.9,5.45,5.45a7.71,7.71,0,0,1,0,10.9l-10.9,10.9a7.71,7.71,0,0,1-10.9,0l-5.45-5.45L42,96.54,31.68,86.19,28.44,83l-7.11-7.11-5.17-5.17A8.52,8.52,0,0,1,15,69.25c-1.38-2.33-2.24-6.54-.24-8.54-.5-.5,3.68-5.54,4-6.15.08-.17,1.38-1.52,1.52-1.66l4.64-4.64Z"/><path class="cls-18" d="M52.78,20.07l5.45-5.45a7.71,7.71,0,0,1,10.9,0l5.45,5.45L85.48,31l5.46,5.46a7.71,7.71,0,0,0,10.9,0L107.29,31,118.2,20.07l5.45-5.45a7.71,7.71,0,0,1,10.9,0l43.61,43.61a7.71,7.71,0,0,1,0,10.9l-5.45,5.45L167.25,80a7.71,7.71,0,0,1-10.9,0L134.54,58.23a7.71,7.71,0,0,0-10.9,0h0a7.71,7.71,0,0,0,0,10.9l21.81,21.81a7.71,7.71,0,0,1,0,10.9L140,107.29l-5.45,5.45a7.71,7.71,0,0,1-10.9,0L107.29,96.38l-10.9-10.9-10.9-10.9-10.9-10.9-5.46-5.46a7.71,7.71,0,0,0-10.9,0h0a7.71,7.71,0,0,0,0,10.9l5.46,5.46,10.9,10.9L80,90.94a7.71,7.71,0,0,1,0,10.9l-10.9,10.9a7.71,7.71,0,0,1-10.9,0l-5.45-5.45-10.9-10.9L31.55,86.06l-3.23-3.23-7.09-7.09-5.16-5.16a9,9,0,0,1-1.15-1.41c-1.36-2.3-2.27-6.53-.3-8.5-.52-.53,3.6-5.55,3.9-6.18.08-.18,1.37-1.52,1.51-1.67l4.66-4.65Z"/><path class="cls-19" d="M52.64,19.93l5.45-5.45a7.71,7.71,0,0,1,10.9,0l5.45,5.45,10.9,10.9,5.46,5.46a7.71,7.71,0,0,0,10.9,0l5.45-5.45,10.91-10.91,5.45-5.45a7.71,7.71,0,0,1,10.9,0L178,58.09A7.71,7.71,0,0,1,178,69l-5.45,5.45-5.46,5.46a7.71,7.71,0,0,1-10.9,0L134.4,58.09a7.71,7.71,0,0,0-10.9,0h0a7.71,7.71,0,0,0,0,10.9L145.31,90.8a7.71,7.71,0,0,1,0,10.9l-5.45,5.45-5.45,5.45a7.71,7.71,0,0,1-10.9,0L107.15,96.24l-10.9-10.9-10.9-10.9-10.9-10.9L69,58.08a7.71,7.71,0,0,0-10.9,0h0a7.71,7.71,0,0,0,0,10.9l5.46,5.46,10.9,10.9,5.45,5.45a7.71,7.71,0,0,1,0,10.9L69,112.6a7.71,7.71,0,0,1-10.9,0l-5.45-5.45-10.9-10.9L31.43,85.94l-3.22-3.22-7.08-7.08L16,70.5a8.88,8.88,0,0,1-1.15-1.41c-1.35-2.27-2.32-6.51-.36-8.46-.55-.55,3.51-5.55,3.82-6.22.09-.18,1.37-1.52,1.52-1.67l4.66-4.66Z"/><path class="cls-20" d="M52.49,19.78l5.45-5.45a7.71,7.71,0,0,1,10.9,0l5.45,5.45,10.9,10.9,5.46,5.46a7.71,7.71,0,0,0,10.9,0L107,30.69l10.91-10.91,5.45-5.45a7.71,7.71,0,0,1,10.9,0l43.61,43.61a7.71,7.71,0,0,1,0,10.9l-5.45,5.45L167,79.75a7.71,7.71,0,0,1-10.9,0L134.25,57.94a7.71,7.71,0,0,0-10.9,0h0a7.71,7.71,0,0,0,0,10.9l21.81,21.81a7.71,7.71,0,0,1,0,10.9L139.71,107l-5.45,5.45a7.71,7.71,0,0,1-10.9,0L107,96.09,96.1,85.19,85.2,74.29,74.3,63.39l-5.46-5.46a7.71,7.71,0,0,0-10.9,0h0a7.71,7.71,0,0,0,0,10.9l5.46,5.46,10.9,10.9,5.45,5.45a7.71,7.71,0,0,1,0,10.9l-10.9,10.9a7.71,7.71,0,0,1-10.9,0L52.49,107,41.59,96.1,31.31,85.82,28.09,82.6,21,75.54,15.9,70.41A9.51,9.51,0,0,1,14.75,69c-1.32-2.24-2.35-6.5-.42-8.43-.58-.57,3.43-5.55,3.75-6.24.09-.19,1.36-1.52,1.52-1.68L24.28,48Z"/><path class="cls-21" d="M52.34,19.63l5.45-5.45a7.71,7.71,0,0,1,10.9,0l5.45,5.45L85,30.53,90.5,36a7.71,7.71,0,0,0,10.9,0l5.45-5.45,10.91-10.91,5.45-5.45a7.71,7.71,0,0,1,10.9,0l43.61,43.61a7.71,7.71,0,0,1,0,10.9l-5.45,5.45-5.46,5.46a7.71,7.71,0,0,1-10.9,0L134.1,57.79a7.71,7.71,0,0,0-10.9,0h0a7.71,7.71,0,0,0,0,10.9L145,90.5a7.71,7.71,0,0,1,0,10.9l-5.45,5.45-5.45,5.45a7.71,7.71,0,0,1-10.9,0L106.85,95.94,96,85l-10.9-10.9-10.9-10.9-5.46-5.46a7.71,7.71,0,0,0-10.9,0h0a7.71,7.71,0,0,0,0,10.9l5.46,5.46,10.9,10.9,5.45,5.45a7.71,7.71,0,0,1,0,10.9l-10.9,10.9a7.71,7.71,0,0,1-10.9,0l-5.45-5.45L41.44,96,31.19,85.7,28,82.49l-7-7-5.11-5.11a9.39,9.39,0,0,1-1.15-1.4c-1.31-2.21-2.39-6.49-.49-8.39-.6-.6,3.35-5.56,3.69-6.28a21.55,21.55,0,0,1,1.52-1.68l4.68-4.68Z"/><path class="cls-21" d="M52.19,19.48,57.64,14a7.71,7.71,0,0,1,10.9,0L74,19.48l10.9,10.9,5.46,5.46a7.71,7.71,0,0,0,10.9,0l5.45-5.45,10.91-10.91L123.06,14A7.71,7.71,0,0,1,134,14l43.61,43.61a7.71,7.71,0,0,1,0,10.9L172.12,74l-5.46,5.46a7.71,7.71,0,0,1-10.9,0L134,57.64a7.71,7.71,0,0,0-10.9,0h0a7.71,7.71,0,0,0,0,10.9l21.81,21.81a7.71,7.71,0,0,1,0,10.9l-5.45,5.45L134,112.15a7.71,7.71,0,0,1-10.9,0L106.7,95.79,95.8,84.89,84.9,74,74,63.09l-5.46-5.46a7.71,7.71,0,0,0-10.9,0h0a7.71,7.71,0,0,0,0,10.9L63.09,74,74,84.9l5.45,5.45a7.71,7.71,0,0,1,0,10.9l-10.9,10.9a7.71,7.71,0,0,1-10.9,0l-5.45-5.45L41.29,95.8,31.06,85.57l-3.2-3.2-7-7-5.11-5.11a8.77,8.77,0,0,1-1.14-1.39c-1.3-2.19-2.44-6.48-.56-8.35-.62-.62,3.27-5.56,3.62-6.31a21.87,21.87,0,0,1,1.52-1.69l4.69-4.69Z"/><path class="cls-22" d="M52,19.33l5.45-5.45a7.71,7.71,0,0,1,10.9,0l5.45,5.45,10.9,10.9,5.46,5.46a7.71,7.71,0,0,0,10.9,0l5.45-5.45,10.91-10.91,5.45-5.45a7.71,7.71,0,0,1,10.9,0l43.61,43.61a7.71,7.71,0,0,1,0,10.9L172,73.84l-5.46,5.46a7.71,7.71,0,0,1-10.9,0L133.8,57.49a7.71,7.71,0,0,0-10.9,0h0a7.71,7.71,0,0,0,0,10.9L144.71,90.2a7.71,7.71,0,0,1,0,10.9l-5.45,5.45L133.81,112a7.71,7.71,0,0,1-10.9,0L106.55,95.64l-10.9-10.9-10.9-10.9-10.9-10.9-5.46-5.46a7.71,7.71,0,0,0-10.9,0h0a7.71,7.71,0,0,0,0,10.9l5.46,5.46,10.9,10.9,5.45,5.45a7.71,7.71,0,0,1,0,10.9L68.39,112a7.71,7.71,0,0,1-10.9,0L52,106.55l-10.9-10.9-10.2-10.2-3.19-3.19-7-7-5.1-5.1a9.82,9.82,0,0,1-1.14-1.38c-1.28-2.16-2.47-6.46-.62-8.31-.64-.65,3.19-5.57,3.55-6.34.11-.22,1.35-1.52,1.52-1.7l4.71-4.7Z"/><path class="cls-23" d="M51.89,19.18l5.45-5.45a7.71,7.71,0,0,1,10.9,0l5.45,5.45,10.9,10.9,5.46,5.46a7.71,7.71,0,0,0,10.9,0l5.45-5.45,10.91-10.91,5.45-5.45a7.71,7.71,0,0,1,10.9,0l43.61,43.61a7.71,7.71,0,0,1,0,10.9l-5.45,5.45-5.46,5.46a7.71,7.71,0,0,1-10.9,0L133.65,57.34a7.71,7.71,0,0,0-10.9,0h0a7.71,7.71,0,0,0,0,10.9l21.81,21.81a7.71,7.71,0,0,1,0,10.9l-5.45,5.45-5.45,5.45a7.71,7.71,0,0,1-10.9,0L106.4,95.49,95.5,84.59,84.6,73.69,73.7,62.79l-5.46-5.46a7.71,7.71,0,0,0-10.9,0h0a7.71,7.71,0,0,0,0,10.9l5.46,5.46,10.9,10.9,5.45,5.45a7.71,7.71,0,0,1,0,10.9l-10.9,10.9a7.71,7.71,0,0,1-10.9,0l-5.45-5.45L41,95.5,30.82,85.33l-3.19-3.19-7-7-5.08-5.08a9.18,9.18,0,0,1-1.14-1.38c-1.26-2.13-2.51-6.45-.69-8.28-.66-.66,3.11-5.57,3.49-6.37a18.51,18.51,0,0,1,1.52-1.7l4.71-4.72Z"/><path class="cls-24" d="M51.75,19l5.45-5.45a7.71,7.71,0,0,1,10.9,0L73.55,19l10.9,10.9,5.46,5.46a7.71,7.71,0,0,0,10.9,0L106.26,30,117.17,19l5.45-5.45a7.71,7.71,0,0,1,10.9,0L177.13,57.2a7.71,7.71,0,0,1,0,10.9l-5.45,5.45L166.22,79a7.71,7.71,0,0,1-10.9,0L133.51,57.2a7.71,7.71,0,0,0-10.9,0h0a7.71,7.71,0,0,0,0,10.9l21.81,21.81a7.71,7.71,0,0,1,0,10.9L139,106.26l-5.45,5.45a7.71,7.71,0,0,1-10.9,0L106.26,95.35l-10.9-10.9-10.9-10.9-10.9-10.9L68.1,57.19a7.71,7.71,0,0,0-10.9,0h0a7.71,7.71,0,0,0,0,10.9l5.46,5.46,10.9,10.9L79,89.91a7.71,7.71,0,0,1,0,10.9l-10.9,10.9a7.71,7.71,0,0,1-10.9,0l-5.45-5.45-10.9-10.9L30.69,85.2,27.52,82l-7-7L15.47,70a9.28,9.28,0,0,1-1.14-1.38c-1.24-2.09-2.55-6.43-.74-8.23-.69-.69,3-5.57,3.41-6.4a20.22,20.22,0,0,1,1.52-1.71l4.73-4.73Z"/><path class="cls-25" d="M51.6,18.89l5.45-5.45a7.71,7.71,0,0,1,10.9,0l5.45,5.45,10.9,10.9,5.46,5.46a7.71,7.71,0,0,0,10.9,0l5.45-5.45L117,18.89l5.45-5.45a7.71,7.71,0,0,1,10.9,0L177,57.05A7.71,7.71,0,0,1,177,68l-5.45,5.45-5.46,5.46a7.71,7.71,0,0,1-10.9,0L133.36,57.05a7.71,7.71,0,0,0-10.9,0h0a7.71,7.71,0,0,0,0,10.9l21.81,21.81a7.71,7.71,0,0,1,0,10.9l-5.45,5.45-5.45,5.45a7.71,7.71,0,0,1-10.9,0L106.11,95.2,95.21,84.3,84.31,73.4,73.41,62.5,68,57a7.71,7.71,0,0,0-10.9,0h0A7.71,7.71,0,0,0,57,68l5.46,5.46,10.9,10.9,5.45,5.45a7.71,7.71,0,0,1,0,10.9L68,111.56a7.71,7.71,0,0,1-10.9,0l-5.45-5.45L40.7,95.21,30.57,85.08,27.4,81.91l-7-7-5.05-5a9.82,9.82,0,0,1-1.14-1.38c-1.23-2.06-2.59-6.41-.81-8.19-.71-.71,2.94-5.58,3.35-6.44a18.61,18.61,0,0,1,1.52-1.71L23,47.44Z"/><path class="cls-26" d="M51.45,18.74l5.45-5.45a7.71,7.71,0,0,1,10.9,0l5.45,5.45,10.9,10.9,5.46,5.46a7.71,7.71,0,0,0,10.9,0L106,29.65l10.91-10.91,5.45-5.45a7.71,7.71,0,0,1,10.9,0L176.83,56.9a7.71,7.71,0,0,1,0,10.9l-5.45,5.45-5.46,5.46a7.71,7.71,0,0,1-10.9,0L133.21,56.9a7.71,7.71,0,0,0-10.9,0h0a7.71,7.71,0,0,0,0,10.9l21.81,21.81a7.71,7.71,0,0,1,0,10.9L138.67,106l-5.45,5.45a7.71,7.71,0,0,1-10.9,0L106,95.05l-10.9-10.9-10.9-10.9-10.9-10.9L67.8,56.89a7.71,7.71,0,0,0-10.9,0h0a7.71,7.71,0,0,0,0,10.9l5.46,5.46,10.9,10.9,5.45,5.45a7.71,7.71,0,0,1,0,10.9l-10.9,10.9a7.71,7.71,0,0,1-10.9,0L51.45,106l-10.9-10.9L30.45,85,27.29,81.8l-6.94-6.94-5.05-5a9.14,9.14,0,0,1-1.13-1.37c-1.21-2-2.63-6.4-.88-8.15-.73-.74,2.86-5.58,3.28-6.47a18.89,18.89,0,0,1,1.52-1.72l4.74-4.75Z"/><path class="cls-27" d="M51.3,18.59l5.45-5.45a7.71,7.71,0,0,1,10.9,0l5.45,5.45L84,29.49,89.46,35a7.71,7.71,0,0,0,10.9,0l5.45-5.45,10.91-10.91,5.45-5.45a7.71,7.71,0,0,1,10.9,0l43.61,43.61a7.71,7.71,0,0,1,0,10.9l-5.45,5.45-5.46,5.46a7.71,7.71,0,0,1-10.9,0L133.06,56.75a7.71,7.71,0,0,0-10.9,0h0a7.71,7.71,0,0,0,0,10.9L144,89.46a7.71,7.71,0,0,1,0,10.9l-5.45,5.45-5.45,5.45a7.71,7.71,0,0,1-10.9,0L105.81,94.9,94.91,84,84,73.1,73.11,62.2l-5.46-5.46a7.71,7.71,0,0,0-10.9,0h0a7.71,7.71,0,0,0,0,10.9l5.46,5.46L73.1,84l5.45,5.45a7.71,7.71,0,0,1,0,10.9l-10.9,10.9a7.71,7.71,0,0,1-10.9,0l-5.45-5.45L40.4,94.91,30.32,84.83l-3.15-3.15-6.92-6.92-5-5a9.75,9.75,0,0,1-1.14-1.37c-1.19-2-2.67-6.39-.94-8.12-.76-.75,2.78-5.58,3.21-6.5A20.33,20.33,0,0,1,17.87,52l4.76-4.76Z"/><path class="cls-27" d="M51.15,18.44,56.6,13a7.71,7.71,0,0,1,10.9,0L73,18.44l10.9,10.9,5.46,5.46a7.71,7.71,0,0,0,10.9,0l5.45-5.45,10.91-10.91L122,13a7.71,7.71,0,0,1,10.9,0L176.53,56.6a7.71,7.71,0,0,1,0,10.9L171.08,73l-5.46,5.46a7.71,7.71,0,0,1-10.9,0L132.91,56.6a7.71,7.71,0,0,0-10.9,0h0a7.71,7.71,0,0,0,0,10.9l21.81,21.81a7.71,7.71,0,0,1,0,10.9l-5.45,5.45-5.45,5.45a7.71,7.71,0,0,1-10.9,0L105.66,94.75l-10.9-10.9L83.86,73,73,62.05,67.5,56.59a7.71,7.71,0,0,0-10.9,0h0a7.71,7.71,0,0,0,0,10.9L62.05,73,73,83.86l5.45,5.45a7.71,7.71,0,0,1,0,10.9l-10.9,10.9a7.71,7.71,0,0,1-10.9,0l-5.45-5.45-10.9-10.9-10-10.05-3.14-3.14-6.91-6.91-5-5A9.06,9.06,0,0,1,14,68.28c-1.18-2-2.71-6.38-1-8.08-.78-.78,2.71-5.59,3.15-6.53a16.37,16.37,0,0,1,1.52-1.73l4.76-4.77Z"/><path class="cls-28" d="M51,18.29l5.45-5.45a7.71,7.71,0,0,1,10.9,0l5.45,5.45,10.9,10.9,5.46,5.46a7.71,7.71,0,0,0,10.9,0l5.45-5.45,10.91-10.91,5.45-5.45a7.71,7.71,0,0,1,10.9,0l43.61,43.61a7.71,7.71,0,0,1,0,10.9l-5.45,5.45-5.46,5.46a7.71,7.71,0,0,1-10.9,0L132.76,56.45a7.71,7.71,0,0,0-10.9,0h0a7.71,7.71,0,0,0,0,10.9l21.81,21.81a7.71,7.71,0,0,1,0,10.9l-5.45,5.45L132.77,111a7.71,7.71,0,0,1-10.9,0L105.51,94.6,94.61,83.7,83.71,72.8,72.81,61.9l-5.46-5.46a7.71,7.71,0,0,0-10.9,0h0a7.71,7.71,0,0,0,0,10.9l5.46,5.46,10.9,10.9,5.45,5.45a7.71,7.71,0,0,1,0,10.9L67.35,111a7.71,7.71,0,0,1-10.9,0L51,105.51,40.1,94.61l-10-10-3.14-3.14-6.89-6.89-5-5a10.4,10.4,0,0,1-1.14-1.36c-1.15-2-2.75-6.36-1.07-8-.8-.8,2.63-5.59,3.08-6.56a17.69,17.69,0,0,1,1.52-1.74l4.78-4.78Z"/><path class="cls-29" d="M50.86,18.15l5.45-5.45a7.71,7.71,0,0,1,10.9,0l5.45,5.45,10.9,10.9L89,34.51a7.71,7.71,0,0,0,10.9,0l5.45-5.45,10.91-10.91,5.45-5.45a7.71,7.71,0,0,1,10.9,0l43.61,43.61a7.71,7.71,0,0,1,0,10.9l-5.45,5.45-5.46,5.46a7.71,7.71,0,0,1-10.9,0L132.62,56.31a7.71,7.71,0,0,0-10.9,0h0a7.71,7.71,0,0,0,0,10.9L143.53,89a7.71,7.71,0,0,1,0,10.9l-5.45,5.45-5.45,5.45a7.71,7.71,0,0,1-10.9,0L105.37,94.46l-10.9-10.9-10.9-10.9-10.9-10.9L67.21,56.3a7.71,7.71,0,0,0-10.9,0h0a7.71,7.71,0,0,0,0,10.9l5.46,5.46,10.9,10.9L78.11,89a7.71,7.71,0,0,1,0,10.9l-10.9,10.9a7.71,7.71,0,0,1-10.9,0l-5.45-5.45L40,94.47l-10-10-3.12-3.12L20,74.46l-5-5a10.24,10.24,0,0,1-1.13-1.35c-1.14-1.92-2.79-6.35-1.13-8-.83-.83,2.54-5.6,3-6.6a17.62,17.62,0,0,1,1.52-1.75L22,47Z"/><path class="cls-30" d="M50.71,18l5.45-5.45a7.71,7.71,0,0,1,10.9,0L72.51,18l10.9,10.9,5.46,5.46a7.71,7.71,0,0,0,10.9,0l5.45-5.45L116.13,18l5.45-5.45a7.71,7.71,0,0,1,10.9,0l43.61,43.61a7.71,7.71,0,0,1,0,10.9l-5.45,5.45L165.18,78a7.71,7.71,0,0,1-10.9,0L132.47,56.16a7.71,7.71,0,0,0-10.9,0h0a7.71,7.71,0,0,0,0,10.9l21.81,21.81a7.71,7.71,0,0,1,0,10.9l-5.45,5.45-5.45,5.45a7.71,7.71,0,0,1-10.9,0L105.22,94.31l-10.9-10.9-10.9-10.9-10.9-10.9-5.46-5.46a7.71,7.71,0,0,0-10.9,0h0a7.71,7.71,0,0,0,0,10.9l5.46,5.46,10.9,10.9L78,88.87a7.71,7.71,0,0,1,0,10.9l-10.9,10.9a7.71,7.71,0,0,1-10.9,0l-5.45-5.45-10.9-10.9-10-10-3.12-3.12-6.85-6.85-5-5A9.52,9.52,0,0,1,13.75,68c-1.13-1.89-2.83-6.34-1.2-8-.85-.84,2.46-5.6,2.94-6.62A16.65,16.65,0,0,1,17,51.69L21.8,46.9Z"/><path class="cls-31" d="M50.56,17.85,56,12.4a7.71,7.71,0,0,1,10.9,0l5.45,5.45,10.9,10.9,5.46,5.46a7.71,7.71,0,0,0,10.9,0l5.45-5.45L116,17.85l5.45-5.45a7.71,7.71,0,0,1,10.9,0L175.94,56a7.71,7.71,0,0,1,0,10.9l-5.45,5.45L165,77.82a7.71,7.71,0,0,1-10.9,0L132.32,56a7.71,7.71,0,0,0-10.9,0h0a7.71,7.71,0,0,0,0,10.9l21.81,21.81a7.71,7.71,0,0,1,0,10.9l-5.45,5.45-5.45,5.45a7.71,7.71,0,0,1-10.9,0L105.07,94.16l-10.9-10.9-10.9-10.9-10.9-10.9L66.91,56A7.71,7.71,0,0,0,56,56h0a7.71,7.71,0,0,0,0,10.9l5.46,5.46,10.9,10.9,5.45,5.45a7.71,7.71,0,0,1,0,10.9l-10.9,10.9a7.71,7.71,0,0,1-10.9,0l-5.45-5.45-10.9-10.9-9.95-10L26.6,81.11l-6.84-6.84-5-5A11,11,0,0,1,13.66,68c-1.1-1.87-2.87-6.32-1.26-7.93-.87-.87,2.38-5.6,2.87-6.66a16.65,16.65,0,0,1,1.52-1.76l4.81-4.8Z"/><path class="cls-32" d="M50.41,17.7l5.45-5.45a7.71,7.71,0,0,1,10.9,0l5.45,5.45,10.9,10.9,5.46,5.46a7.71,7.71,0,0,0,10.9,0l5.45-5.45L115.83,17.7l5.45-5.45a7.71,7.71,0,0,1,10.9,0l43.61,43.61a7.71,7.71,0,0,1,0,10.9l-5.45,5.45-5.46,5.46a7.71,7.71,0,0,1-10.9,0L132.17,55.86a7.71,7.71,0,0,0-10.9,0h0a7.71,7.71,0,0,0,0,10.9l21.81,21.81a7.71,7.71,0,0,1,0,10.9l-5.45,5.45-5.45,5.45a7.71,7.71,0,0,1-10.9,0L104.92,94,94,83.11l-10.9-10.9-10.9-10.9-5.46-5.46a7.71,7.71,0,0,0-10.9,0h0a7.71,7.71,0,0,0,0,10.9l5.46,5.46,10.9,10.9,5.45,5.45a7.71,7.71,0,0,1,0,10.9l-10.9,10.9a7.71,7.71,0,0,1-10.9,0l-5.45-5.45L39.51,94,29.59,84.1,26.48,81l-6.82-6.82-4.95-5a10.15,10.15,0,0,1-1.13-1.34C12.49,66,10.67,61.57,12.25,60c-.89-.9,2.3-5.61,2.81-6.69a15.66,15.66,0,0,1,1.52-1.77l4.81-4.81Z"/><path class="cls-33" d="M50.26,17.55l5.45-5.45a7.71,7.71,0,0,1,10.9,0l5.45,5.45L83,28.45l5.46,5.46a7.71,7.71,0,0,0,10.9,0l5.45-5.45,10.91-10.91,5.45-5.45a7.71,7.71,0,0,1,10.9,0l43.61,43.61a7.71,7.71,0,0,1,0,10.9l-5.45,5.45-5.46,5.46a7.71,7.71,0,0,1-10.9,0L132,55.71a7.71,7.71,0,0,0-10.9,0h0a7.71,7.71,0,0,0,0,10.9l21.81,21.81a7.71,7.71,0,0,1,0,10.9l-5.45,5.45L132,110.22a7.71,7.71,0,0,1-10.9,0L104.77,93.86,93.87,83,83,72.06l-10.9-10.9L66.61,55.7a7.71,7.71,0,0,0-10.9,0h0a7.71,7.71,0,0,0,0,10.9l5.46,5.46L72.06,83l5.45,5.45a7.71,7.71,0,0,1,0,10.9l-10.9,10.9a7.71,7.71,0,0,1-10.9,0l-5.45-5.45-10.9-10.9L29.46,84l-3.1-3.1-6.8-6.8-4.94-4.94a10.76,10.76,0,0,1-1.13-1.33C12.42,66,10.55,61.5,12.1,60c-.91-.92,2.22-5.62,2.74-6.73a15.66,15.66,0,0,1,1.52-1.77l4.83-4.82Z"/><path class="cls-34" d="M50.11,17.4,55.56,12a7.71,7.71,0,0,1,10.9,0l5.45,5.45,10.9,10.9,5.46,5.46a7.71,7.71,0,0,0,10.9,0l5.45-5.45L115.53,17.4,121,12a7.71,7.71,0,0,1,10.9,0l43.61,43.61a7.71,7.71,0,0,1,0,10.9L170,71.91l-5.46,5.46a7.71,7.71,0,0,1-10.9,0L131.87,55.56a7.71,7.71,0,0,0-10.9,0h0a7.71,7.71,0,0,0,0,10.9l21.81,21.81a7.71,7.71,0,0,1,0,10.9l-5.45,5.45-5.45,5.45a7.71,7.71,0,0,1-10.9,0L104.62,93.71l-10.9-10.9-10.9-10.9L71.92,61l-5.46-5.46a7.71,7.71,0,0,0-10.9,0h0a7.71,7.71,0,0,0,0,10.9L61,71.92l10.9,10.9,5.45,5.45a7.71,7.71,0,0,1,0,10.9l-10.9,10.9a7.71,7.71,0,0,1-10.9,0l-5.45-5.45-10.9-10.9-9.87-9.87-3.09-3.09L19.46,74,14.53,69a10.59,10.59,0,0,1-1.12-1.32c-1.06-1.78-3-6.29-1.46-7.82-.94-.94,2.14-5.61,2.68-6.75a14.78,14.78,0,0,1,1.52-1.78L21,46.54Z"/><path class="cls-35" d="M50,17.26l5.45-5.45a7.71,7.71,0,0,1,10.9,0l5.45,5.45,10.9,10.9,5.46,5.46a7.71,7.71,0,0,0,10.9,0l5.45-5.45,10.91-10.91,5.45-5.45a7.71,7.71,0,0,1,10.9,0l43.61,43.61a7.71,7.71,0,0,1,0,10.9l-5.45,5.45-5.46,5.46a7.71,7.71,0,0,1-10.9,0L131.73,55.42a7.71,7.71,0,0,0-10.9,0h0a7.71,7.71,0,0,0,0,10.9l21.81,21.81a7.71,7.71,0,0,1,0,10.9l-5.45,5.45-5.45,5.45a7.71,7.71,0,0,1-10.9,0L104.48,93.57l-10.9-10.9-10.9-10.9-10.9-10.9-5.46-5.46a7.71,7.71,0,0,0-10.9,0h0a7.71,7.71,0,0,0,0,10.9l5.46,5.46,10.9,10.9,5.45,5.45a7.71,7.71,0,0,1,0,10.9l-10.9,10.9a7.71,7.71,0,0,1-10.9,0L50,104.48l-10.9-10.9-9.85-9.85-3.09-3.09-6.76-6.76L14.45,69a10.59,10.59,0,0,1-1.12-1.32c-1-1.75-3-6.27-1.52-7.78-1-1,2-5.62,2.6-6.78a15,15,0,0,1,1.52-1.79l4.84-4.84Z"/><path class="cls-36" d="M49.82,17.11l5.45-5.45a7.71,7.71,0,0,1,10.9,0l5.45,5.45L82.52,28,88,33.47a7.71,7.71,0,0,0,10.9,0L104.33,28l10.91-10.91,5.45-5.45a7.71,7.71,0,0,1,10.9,0L175.2,55.27a7.71,7.71,0,0,1,0,10.9l-5.45,5.45-5.46,5.46a7.71,7.71,0,0,1-10.9,0L131.58,55.27a7.71,7.71,0,0,0-10.9,0h0a7.71,7.71,0,0,0,0,10.9L142.49,88a7.71,7.71,0,0,1,0,10.9L137,104.33l-5.45,5.45a7.71,7.71,0,0,1-10.9,0L104.33,93.42l-10.9-10.9-10.9-10.9-10.9-10.9-5.46-5.46a7.71,7.71,0,0,0-10.9,0h0a7.71,7.71,0,0,0,0,10.9l5.46,5.46,10.9,10.9L77.07,88a7.71,7.71,0,0,1,0,10.9l-10.9,10.9a7.71,7.71,0,0,1-10.9,0l-5.45-5.45-10.9-10.9L29.09,83.6,26,80.53l-6.75-6.75-4.91-4.91a11.42,11.42,0,0,1-1.12-1.31c-1-1.73-3.06-6.26-1.58-7.74-1-1,2-5.63,2.53-6.82a15,15,0,0,1,1.52-1.79l4.86-4.85Z"/><path class="cls-37" d="M49.67,17l5.45-5.45a7.71,7.71,0,0,1,10.9,0L71.47,17l10.9,10.9,5.46,5.46a7.71,7.71,0,0,0,10.9,0l5.45-5.45L115.09,17l5.45-5.45a7.71,7.71,0,0,1,10.9,0l43.61,43.61a7.71,7.71,0,0,1,0,10.9l-5.45,5.45-5.46,5.46a7.71,7.71,0,0,1-10.9,0L131.43,55.12a7.71,7.71,0,0,0-10.9,0h0a7.71,7.71,0,0,0,0,10.9l21.81,21.81a7.71,7.71,0,0,1,0,10.9l-5.45,5.45-5.45,5.45a7.71,7.71,0,0,1-10.9,0L104.18,93.27l-10.9-10.9-10.9-10.9-10.9-10.9L66,55.11a7.71,7.71,0,0,0-10.9,0h0a7.71,7.71,0,0,0,0,10.9l5.46,5.46,10.9,10.9,5.45,5.45a7.71,7.71,0,0,1,0,10.9L66,109.63a7.71,7.71,0,0,1-10.9,0l-5.45-5.45-10.9-10.9L29,83.48,25.9,80.41l-6.73-6.73-4.89-4.89a10.51,10.51,0,0,1-1.12-1.31c-1-1.7-3.11-6.25-1.65-7.7-1-1,1.89-5.63,2.47-6.85a13.43,13.43,0,0,1,1.52-1.8l4.86-4.86Z"/><path class="cls-38" d="M49.52,16.81,55,11.36a7.71,7.71,0,0,1,10.9,0l5.45,5.45,10.9,10.9,5.46,5.46a7.71,7.71,0,0,0,10.9,0L104,27.72l10.91-10.91,5.45-5.45a7.71,7.71,0,0,1,10.9,0L174.9,55a7.71,7.71,0,0,1,0,10.9l-5.45,5.45L164,76.78a7.71,7.71,0,0,1-10.9,0L131.28,55a7.71,7.71,0,0,0-10.9,0h0a7.71,7.71,0,0,0,0,10.9l21.81,21.81a7.71,7.71,0,0,1,0,10.9L136.74,104l-5.45,5.45a7.71,7.71,0,0,1-10.9,0L104,93.12l-10.9-10.9-10.9-10.9-10.9-10.9L65.87,55A7.71,7.71,0,0,0,55,55h0a7.71,7.71,0,0,0,0,10.9l5.46,5.46,10.9,10.9,5.45,5.45a7.71,7.71,0,0,1,0,10.9l-10.9,10.9a7.71,7.71,0,0,1-10.9,0L49.52,104l-10.9-10.9-9.77-9.77L25.79,80.3l-6.72-6.72L14.19,68.7a10.54,10.54,0,0,1-1.11-1.31c-1-1.66-3.15-6.23-1.72-7.66-1-1,1.82-5.63,2.4-6.88a14.21,14.21,0,0,1,1.52-1.8l4.88-4.88Z"/><path class="cls-39" d="M49.37,16.66l5.45-5.45a7.71,7.71,0,0,1,10.9,0l5.45,5.45,10.9,10.9L87.53,33a7.71,7.71,0,0,0,10.9,0l5.45-5.45,10.91-10.91,5.45-5.45a7.71,7.71,0,0,1,10.9,0l43.61,43.61a7.71,7.71,0,0,1,0,10.9l-5.45,5.45-5.46,5.46a7.71,7.71,0,0,1-10.9,0L131.13,54.82a7.71,7.71,0,0,0-10.9,0h0a7.71,7.71,0,0,0,0,10.9L142,87.53a7.71,7.71,0,0,1,0,10.9l-5.45,5.45-5.45,5.45a7.71,7.71,0,0,1-10.9,0L103.88,93,93,82.07l-10.9-10.9-10.9-10.9-5.46-5.46a7.71,7.71,0,0,0-10.9,0h0a7.71,7.71,0,0,0,0,10.9l5.46,5.46,10.9,10.9,5.45,5.45a7.71,7.71,0,0,1,0,10.9l-10.9,10.9a7.71,7.71,0,0,1-10.9,0l-5.45-5.45L38.47,93l-9.75-9.75-3-3L19,73.48l-4.86-4.86A11.42,11.42,0,0,1,13,67.31c-1-1.63-3.19-6.21-1.78-7.62-1.05-1,1.74-5.64,2.33-6.91A14.38,14.38,0,0,1,15.07,51L20,46.08Z"/><path class="cls-40" d="M49.22,16.51l5.45-5.45a7.71,7.71,0,0,1,10.9,0L71,16.51l10.9,10.9,5.46,5.46a7.71,7.71,0,0,0,10.9,0l5.45-5.45,10.91-10.91,5.45-5.45a7.71,7.71,0,0,1,10.9,0L174.6,54.67a7.71,7.71,0,0,1,0,10.9L169.15,71l-5.46,5.46a7.71,7.71,0,0,1-10.9,0L131,54.67a7.71,7.71,0,0,0-10.9,0h0a7.71,7.71,0,0,0,0,10.9l21.81,21.81a7.71,7.71,0,0,1,0,10.9l-5.45,5.45L131,109.18a7.71,7.71,0,0,1-10.9,0L103.73,92.82l-10.9-10.9L81.93,71,71,60.12l-5.46-5.46a7.71,7.71,0,0,0-10.9,0h0a7.71,7.71,0,0,0,0,10.9L60.12,71,71,81.93l5.45,5.45a7.71,7.71,0,0,1,0,10.9l-10.9,10.9a7.71,7.71,0,0,1-10.9,0l-5.45-5.45-10.9-10.9L28.6,83.11l-3-3-6.69-6.69L14,68.53a10.46,10.46,0,0,1-1.11-1.3c-1-1.6-3.23-6.2-1.85-7.58C10,58.57,12.72,54,13.33,52.7a12.91,12.91,0,0,1,1.52-1.81L19.74,46Z"/><path class="cls-41" d="M49.08,16.37l5.45-5.45a7.71,7.71,0,0,1,10.9,0l5.45,5.45,10.9,10.9,5.46,5.46a7.71,7.71,0,0,0,10.9,0l5.45-5.45L114.5,16.37,120,10.92a7.71,7.71,0,0,1,10.9,0l43.61,43.61a7.71,7.71,0,0,1,0,10.9L169,70.88l-5.46,5.46a7.71,7.71,0,0,1-10.9,0L130.84,54.53a7.71,7.71,0,0,0-10.9,0h0a7.71,7.71,0,0,0,0,10.9l21.81,21.81a7.71,7.71,0,0,1,0,10.9l-5.45,5.45L130.85,109a7.71,7.71,0,0,1-10.9,0L103.59,92.68l-10.9-10.9-10.9-10.9L70.89,60l-5.46-5.46a7.71,7.71,0,0,0-10.9,0h0a7.71,7.71,0,0,0,0,10.9L60,70.89l10.9,10.9,5.45,5.45a7.71,7.71,0,0,1,0,10.9L65.43,109a7.71,7.71,0,0,1-10.9,0l-5.45-5.45-10.9-10.9L28.48,83l-3-3-6.66-6.66-4.84-4.84a12.42,12.42,0,0,1-1.12-1.3c-.93-1.58-3.26-6.19-1.9-7.54-1.1-1.1,1.57-5.65,2.19-7a13,13,0,0,1,1.52-1.82l4.91-4.91Z"/><path class="cls-42" d="M48.93,16.22l5.45-5.45a7.71,7.71,0,0,1,10.9,0l5.45,5.45,10.9,10.9,5.46,5.46a7.71,7.71,0,0,0,10.9,0l5.45-5.45,10.91-10.91,5.45-5.45a7.71,7.71,0,0,1,10.9,0l43.61,43.61a7.71,7.71,0,0,1,0,10.9l-5.45,5.45-5.46,5.46a7.71,7.71,0,0,1-10.9,0L130.69,54.38a7.71,7.71,0,0,0-10.9,0h0a7.71,7.71,0,0,0,0,10.9L141.6,87.09a7.71,7.71,0,0,1,0,10.9l-5.45,5.45-5.45,5.45a7.71,7.71,0,0,1-10.9,0L103.44,92.53l-10.9-10.9-10.9-10.9-10.9-10.9-5.46-5.46a7.71,7.71,0,0,0-10.9,0h0a7.71,7.71,0,0,0,0,10.9l5.46,5.46,10.9,10.9,5.45,5.45a7.71,7.71,0,0,1,0,10.9l-10.9,10.9a7.71,7.71,0,0,1-10.9,0l-5.45-5.45L38,92.54l-9.68-9.68-3-3-6.65-6.65-4.83-4.83a11.28,11.28,0,0,1-1.11-1.29c-.92-1.55-3.31-6.17-2-7.51-1.13-1.12,1.49-5.65,2.13-7a12.33,12.33,0,0,1,1.52-1.82l4.91-4.92Z"/><path class="cls-43" d="M48.78,16.07l5.45-5.45a7.71,7.71,0,0,1,10.9,0l5.45,5.45L81.48,27l5.46,5.46a7.71,7.71,0,0,0,10.9,0L103.29,27,114.2,16.07l5.45-5.45a7.71,7.71,0,0,1,10.9,0l43.61,43.61a7.71,7.71,0,0,1,0,10.9l-5.45,5.45L163.25,76a7.71,7.71,0,0,1-10.9,0L130.54,54.23a7.71,7.71,0,0,0-10.9,0h0a7.71,7.71,0,0,0,0,10.9l21.81,21.81a7.71,7.71,0,0,1,0,10.9L136,103.29l-5.45,5.45a7.71,7.71,0,0,1-10.9,0L103.29,92.38l-10.9-10.9-10.9-10.9-10.9-10.9-5.46-5.46a7.71,7.71,0,0,0-10.9,0h0a7.71,7.71,0,0,0,0,10.9l5.46,5.46,10.9,10.9L76,86.94a7.71,7.71,0,0,1,0,10.9l-10.9,10.9a7.71,7.71,0,0,1-10.9,0l-5.45-5.45-10.9-10.9-9.65-9.65-3-3-6.63-6.63-4.81-4.81A11.15,11.15,0,0,1,12.66,67c-.91-1.52-3.35-6.16-2-7.47-1.15-1.15,1.41-5.65,2.06-7a13.74,13.74,0,0,1,1.52-1.84l4.93-4.92Z"/><path class="cls-44" d="M48.63,15.92l5.45-5.45a7.71,7.71,0,0,1,10.9,0l5.45,5.45,10.9,10.9,5.46,5.46a7.71,7.71,0,0,0,10.9,0l5.45-5.45,10.91-10.91,5.45-5.45a7.71,7.71,0,0,1,10.9,0L174,54.08A7.71,7.71,0,0,1,174,65l-5.45,5.45-5.46,5.46a7.71,7.71,0,0,1-10.9,0L130.39,54.08a7.71,7.71,0,0,0-10.9,0h0a7.71,7.71,0,0,0,0,10.9L141.3,86.79a7.71,7.71,0,0,1,0,10.9l-5.45,5.45-5.45,5.45a7.71,7.71,0,0,1-10.9,0L103.14,92.23l-10.9-10.9-10.9-10.9-10.9-10.9L65,54.07a7.71,7.71,0,0,0-10.9,0h0a7.71,7.71,0,0,0,0,10.9l5.46,5.46,10.9,10.9,5.45,5.45a7.71,7.71,0,0,1,0,10.9L65,108.59a7.71,7.71,0,0,1-10.9,0l-5.45-5.45-10.9-10.9-9.62-9.62-3-3L18.48,73l-4.8-4.8a11.19,11.19,0,0,1-1.11-1.28c-.88-1.49-3.38-6.15-2.1-7.43-1.17-1.17,1.33-5.66,2-7.07A13.17,13.17,0,0,1,14,50.56l4.93-4.93Z"/><path class="cls-45" d="M48.48,15.77l5.45-5.45a7.71,7.71,0,0,1,10.9,0l5.45,5.45,10.9,10.9,5.46,5.46a7.71,7.71,0,0,0,10.9,0L103,26.68,113.9,15.77l5.45-5.45a7.71,7.71,0,0,1,10.9,0l43.61,43.61a7.71,7.71,0,0,1,0,10.9l-5.45,5.45L163,75.74a7.71,7.71,0,0,1-10.9,0L130.24,53.93a7.71,7.71,0,0,0-10.9,0h0a7.71,7.71,0,0,0,0,10.9l21.81,21.81a7.71,7.71,0,0,1,0,10.9L135.7,103l-5.45,5.45a7.71,7.71,0,0,1-10.9,0L103,92.08l-10.9-10.9-10.9-10.9-10.9-10.9-5.46-5.46a7.71,7.71,0,0,0-10.9,0h0a7.71,7.71,0,0,0,0,10.9l5.46,5.46,10.9,10.9,5.45,5.45a7.71,7.71,0,0,1,0,10.9l-10.9,10.9a7.71,7.71,0,0,1-10.9,0L48.48,103l-10.9-10.9L28,82.5l-3-3-6.6-6.6L13.6,68.11a12,12,0,0,1-1.11-1.28c-.87-1.46-3.43-6.14-2.17-7.39-1.19-1.2,1.25-5.67,1.93-7.11a12,12,0,0,1,1.52-1.85l4.94-4.94Z"/><path class="cls-46" d="M48.33,15.62l5.45-5.45a7.71,7.71,0,0,1,10.9,0l5.45,5.45L81,26.52,86.49,32a7.71,7.71,0,0,0,10.9,0l5.45-5.45,10.91-10.91,5.45-5.45a7.71,7.71,0,0,1,10.9,0l43.61,43.61a7.71,7.71,0,0,1,0,10.9l-5.45,5.45-5.46,5.46a7.71,7.71,0,0,1-10.9,0L130.09,53.78a7.71,7.71,0,0,0-10.9,0h0a7.71,7.71,0,0,0,0,10.9L141,86.49a7.71,7.71,0,0,1,0,10.9l-5.45,5.45-5.45,5.45a7.71,7.71,0,0,1-10.9,0L102.84,91.93,91.94,81,81,70.13l-10.9-10.9-5.46-5.46a7.71,7.71,0,0,0-10.9,0h0a7.71,7.71,0,0,0,0,10.9l5.46,5.46L70.13,81l5.45,5.45a7.71,7.71,0,0,1,0,10.9l-10.9,10.9a7.71,7.71,0,0,1-10.9,0l-5.45-5.45-10.9-10.9-9.57-9.57-3-3L18.29,72.8,13.51,68a13.1,13.1,0,0,1-1.11-1.27c-.85-1.44-3.46-6.12-2.23-7.36C9,58.18,11.34,53.73,12,52.26a12.09,12.09,0,0,1,1.53-1.86l5-4.95Z"/><path class="cls-47" d="M48.19,15.48,53.64,10a7.71,7.71,0,0,1,10.9,0L70,15.48l10.9,10.9,5.46,5.46a7.71,7.71,0,0,0,10.9,0l5.45-5.45,10.91-10.91L119.06,10A7.71,7.71,0,0,1,130,10l43.61,43.61a7.71,7.71,0,0,1,0,10.9L168.12,70l-5.46,5.46a7.71,7.71,0,0,1-10.9,0L130,53.64a7.71,7.71,0,0,0-10.9,0h0a7.71,7.71,0,0,0,0,10.9l21.81,21.81a7.71,7.71,0,0,1,0,10.9l-5.45,5.45L130,108.15a7.71,7.71,0,0,1-10.9,0L102.7,91.79,91.8,80.89,80.9,70,70,59.09l-5.46-5.46a7.71,7.71,0,0,0-10.9,0h0a7.71,7.71,0,0,0,0,10.9L59.09,70,70,80.9l5.45,5.45a7.71,7.71,0,0,1,0,10.9l-10.9,10.9a7.71,7.71,0,0,1-10.9,0l-5.45-5.45L37.29,91.8l-9.55-9.55-3-3L18.19,72.7l-4.77-4.77a11.81,11.81,0,0,1-1.1-1.26c-.83-1.41-3.5-6.11-2.29-7.32-1.24-1.24,1.08-5.67,1.79-7.17a12,12,0,0,1,1.52-1.86l5-5Z"/><path class="cls-48" d="M48,15.33l5.45-5.45a7.71,7.71,0,0,1,10.9,0l5.45,5.45,10.9,10.9,5.46,5.46a7.71,7.71,0,0,0,10.9,0l5.45-5.45,10.91-10.91,5.45-5.45a7.71,7.71,0,0,1,10.9,0l43.61,43.61a7.71,7.71,0,0,1,0,10.9L168,69.84l-5.46,5.46a7.71,7.71,0,0,1-10.9,0L129.8,53.49a7.71,7.71,0,0,0-10.9,0h0a7.71,7.71,0,0,0,0,10.9L140.71,86.2a7.71,7.71,0,0,1,0,10.9l-5.45,5.45L129.81,108a7.71,7.71,0,0,1-10.9,0L102.55,91.64l-10.9-10.9-10.9-10.9-10.9-10.9-5.46-5.46a7.71,7.71,0,0,0-10.9,0h0a7.71,7.71,0,0,0,0,10.9l5.46,5.46,10.9,10.9,5.45,5.45a7.71,7.71,0,0,1,0,10.9L64.39,108a7.71,7.71,0,0,1-10.9,0L48,102.55l-10.9-10.9-9.52-9.52-3-3L18.09,72.6l-4.75-4.75a12.88,12.88,0,0,1-1.1-1.26c-.82-1.38-3.55-6.1-2.36-7.28-1.26-1.26,1-5.68,1.72-7.2a12.7,12.7,0,0,1,1.52-1.87l5-5Z"/><path class="cls-49" d="M47.89,15.18l5.45-5.45a7.71,7.71,0,0,1,10.9,0l5.45,5.45,10.9,10.9,5.46,5.46a7.71,7.71,0,0,0,10.9,0l5.45-5.45,10.91-10.91,5.45-5.45a7.71,7.71,0,0,1,10.9,0l43.61,43.61a7.71,7.71,0,0,1,0,10.9l-5.45,5.45-5.46,5.46a7.71,7.71,0,0,1-10.9,0L129.65,53.34a7.71,7.71,0,0,0-10.9,0h0a7.71,7.71,0,0,0,0,10.9l21.81,21.81a7.71,7.71,0,0,1,0,10.9l-5.45,5.45-5.45,5.45a7.71,7.71,0,0,1-10.9,0L102.4,91.49,91.5,80.59,80.6,69.69,69.7,58.79l-5.46-5.46a7.71,7.71,0,0,0-10.9,0h0a7.71,7.71,0,0,0,0,10.9l5.46,5.46,10.9,10.9,5.45,5.45a7.71,7.71,0,0,1,0,10.9l-10.9,10.9a7.71,7.71,0,0,1-10.9,0l-5.45-5.45L37,91.5,27.49,82l-3-3L18,72.5l-4.74-4.74a12.94,12.94,0,0,1-1.1-1.25c-.8-1.35-3.58-6.08-2.42-7.24C8.45,58,10.66,53.59,11.38,52a11.6,11.6,0,0,1,1.53-1.87l5-5Z"/><path class="cls-50" d="M47.74,15l5.45-5.45a7.71,7.71,0,0,1,10.9,0L69.54,15l10.9,10.9,5.46,5.46a7.71,7.71,0,0,0,10.9,0l5.45-5.45L113.16,15l5.45-5.45a7.71,7.71,0,0,1,10.9,0l43.61,43.61a7.71,7.71,0,0,1,0,10.9l-5.45,5.45L162.21,75a7.71,7.71,0,0,1-10.9,0L129.5,53.19a7.71,7.71,0,0,0-10.9,0h0a7.71,7.71,0,0,0,0,10.9L140.41,85.9a7.71,7.71,0,0,1,0,10.9L135,102.25l-5.45,5.45a7.71,7.71,0,0,1-10.9,0L102.25,91.34l-10.9-10.9-10.9-10.9-10.9-10.9-5.46-5.46a7.71,7.71,0,0,0-10.9,0h0a7.71,7.71,0,0,0,0,10.9l5.46,5.46,10.9,10.9L75,85.9a7.71,7.71,0,0,1,0,10.9l-10.9,10.9a7.71,7.71,0,0,1-10.9,0l-5.45-5.45-10.9-10.9-9.47-9.47-3-3L17.89,72.4l-4.72-4.72a12.78,12.78,0,0,1-1.1-1.25c-.79-1.32-3.63-6.07-2.49-7.21-1.31-1.3.85-5.68,1.59-7.26a11.18,11.18,0,0,1,1.52-1.88l5-5Z"/><path class="cls-51" d="M47.59,14.88,53,9.43a7.71,7.71,0,0,1,10.9,0l5.45,5.45,10.9,10.9,5.46,5.46a7.71,7.71,0,0,0,10.9,0l5.45-5.45L113,14.88l5.45-5.45a7.71,7.71,0,0,1,10.9,0L173,53a7.71,7.71,0,0,1,0,10.9l-5.45,5.45-5.46,5.46a7.71,7.71,0,0,1-10.9,0L129.35,53a7.71,7.71,0,0,0-10.9,0h0a7.71,7.71,0,0,0,0,10.9l21.81,21.81a7.71,7.71,0,0,1,0,10.9l-5.45,5.45-5.45,5.45a7.71,7.71,0,0,1-10.9,0L102.1,91.19,91.2,80.29,80.3,69.39,69.4,58.49,63.94,53A7.71,7.71,0,0,0,53,53h0a7.71,7.71,0,0,0,0,10.9l5.46,5.46,10.9,10.9,5.45,5.45a7.71,7.71,0,0,1,0,10.9l-10.9,10.9a7.71,7.71,0,0,1-10.9,0l-5.45-5.45L36.69,91.2l-9.44-9.44-3-3L17.8,72.31l-4.72-4.72A14.15,14.15,0,0,1,12,66.35c-.76-1.3-3.66-6.06-2.55-7.17-1.33-1.33.77-5.69,1.52-7.29A11.31,11.31,0,0,1,12.48,50l5-5Z"/><path class="cls-52" d="M47.44,14.73l5.45-5.45a7.71,7.71,0,0,1,10.9,0l5.45,5.45,10.9,10.9,5.46,5.46a7.71,7.71,0,0,0,10.9,0L102,25.64l10.91-10.91,5.45-5.45a7.71,7.71,0,0,1,10.9,0l43.61,43.61a7.71,7.71,0,0,1,0,10.9l-5.45,5.45-5.46,5.46a7.71,7.71,0,0,1-10.9,0L129.2,52.89a7.71,7.71,0,0,0-10.9,0h0a7.71,7.71,0,0,0,0,10.9L140.11,85.6a7.71,7.71,0,0,1,0,10.9L134.66,102l-5.45,5.45a7.71,7.71,0,0,1-10.9,0L102,91l-10.9-10.9-10.9-10.9-10.9-10.9-5.46-5.46a7.71,7.71,0,0,0-10.9,0h0a7.71,7.71,0,0,0,0,10.9l5.46,5.46,10.9,10.9,5.45,5.45a7.71,7.71,0,0,1,0,10.9l-10.9,10.9a7.71,7.71,0,0,1-10.9,0L47.44,102l-10.9-10.9-9.42-9.42-2.94-2.94L17.7,72.21,13,67.51a14.15,14.15,0,0,1-1.1-1.24c-.75-1.27-3.7-6-2.62-7.13-1.35-1.35.69-5.69,1.46-7.33a11.25,11.25,0,0,1,1.52-1.89l5-5Z"/><path class="cls-53" d="M47.3,14.59l5.45-5.45a7.71,7.71,0,0,1,10.9,0l5.45,5.45L80,25.49,85.46,31a7.71,7.71,0,0,0,10.9,0l5.45-5.45,10.91-10.91,5.45-5.45a7.71,7.71,0,0,1,10.9,0l43.61,43.61a7.71,7.71,0,0,1,0,10.9l-5.45,5.45-5.46,5.46a7.71,7.71,0,0,1-10.9,0L129.06,52.75a7.71,7.71,0,0,0-10.9,0h0a7.71,7.71,0,0,0,0,10.9L140,85.46a7.71,7.71,0,0,1,0,10.9l-5.45,5.45-5.45,5.45a7.71,7.71,0,0,1-10.9,0L101.81,90.9,90.91,80,80,69.1,69.11,58.2l-5.46-5.46a7.71,7.71,0,0,0-10.9,0h0a7.71,7.71,0,0,0,0,10.9l5.46,5.46L69.1,80l5.45,5.45a7.71,7.71,0,0,1,0,10.9l-10.9,10.9a7.71,7.71,0,0,1-10.9,0l-5.45-5.45L36.4,90.91,27,81.51l-2.94-2.94L17.6,72.11l-4.69-4.69a13.9,13.9,0,0,1-1.09-1.23c-.74-1.24-3.75-6-2.68-7.09-1.38-1.38.6-5.7,1.38-7.36A10.83,10.83,0,0,1,12,49.84l5-5Z"/><path class="cls-54" d="M47.15,14.44,52.6,9A7.71,7.71,0,0,1,63.5,9L69,14.44l10.9,10.9,5.46,5.46a7.71,7.71,0,0,0,10.9,0l5.45-5.45,10.91-10.91L118,9a7.71,7.71,0,0,1,10.9,0L172.53,52.6a7.71,7.71,0,0,1,0,10.9L167.08,69l-5.46,5.46a7.71,7.71,0,0,1-10.9,0L128.91,52.6a7.71,7.71,0,0,0-10.9,0h0a7.71,7.71,0,0,0,0,10.9l21.81,21.81a7.71,7.71,0,0,1,0,10.9l-5.45,5.45-5.45,5.45a7.71,7.71,0,0,1-10.9,0L101.66,90.75l-10.9-10.9L79.86,69,69,58.05,63.5,52.59a7.71,7.71,0,0,0-10.9,0h0a7.71,7.71,0,0,0,0,10.9L58.05,69,69,79.86l5.45,5.45a7.71,7.71,0,0,1,0,10.9l-10.9,10.9a7.71,7.71,0,0,1-10.9,0l-5.45-5.45-10.9-10.9-9.37-9.37L24,78.46,17.5,72l-4.67-4.67a12.84,12.84,0,0,1-1.1-1.24c-.71-1.2-3.78-6-2.74-7-1.4-1.39.52-5.7,1.31-7.39a10.9,10.9,0,0,1,1.53-1.9l5-5Z"/><path class="cls-55" d="M47,14.29l5.45-5.45a7.71,7.71,0,0,1,10.9,0l5.45,5.45,10.9,10.9,5.46,5.46a7.71,7.71,0,0,0,10.9,0l5.45-5.45,10.91-10.91,5.45-5.45a7.71,7.71,0,0,1,10.9,0l43.61,43.61a7.71,7.71,0,0,1,0,10.9l-5.45,5.45-5.46,5.46a7.71,7.71,0,0,1-10.9,0L128.76,52.45a7.71,7.71,0,0,0-10.9,0h0a7.71,7.71,0,0,0,0,10.9l21.81,21.81a7.71,7.71,0,0,1,0,10.9l-5.45,5.45L128.77,107a7.71,7.71,0,0,1-10.9,0L101.51,90.6,90.61,79.7,79.71,68.8,68.81,57.9l-5.46-5.46a7.71,7.71,0,0,0-10.9,0h0a7.71,7.71,0,0,0,0,10.9l5.46,5.46,10.9,10.9,5.45,5.45a7.71,7.71,0,0,1,0,10.9L63.35,107a7.71,7.71,0,0,1-10.9,0L47,101.51,36.1,90.61l-9.35-9.35-2.92-2.92L17.4,71.91l-4.66-4.66A14.09,14.09,0,0,1,11.65,66c-.7-1.17-3.82-6-2.81-7-1.42-1.42.44-5.7,1.25-7.42a10.9,10.9,0,0,1,1.52-1.91l5-5Z"/><path class="cls-56" d="M46.85,14.14,52.3,8.69a7.71,7.71,0,0,1,10.9,0l5.45,5.45L79.55,25,85,30.5a7.71,7.71,0,0,0,10.9,0l5.45-5.45,10.91-10.91,5.45-5.45a7.71,7.71,0,0,1,10.9,0L172.23,52.3a7.71,7.71,0,0,1,0,10.9l-5.45,5.45-5.46,5.46a7.71,7.71,0,0,1-10.9,0L128.61,52.3a7.71,7.71,0,0,0-10.9,0h0a7.71,7.71,0,0,0,0,10.9L139.52,85a7.71,7.71,0,0,1,0,10.9l-5.45,5.45-5.45,5.45a7.71,7.71,0,0,1-10.9,0L101.36,90.45l-10.9-10.9-10.9-10.9-10.9-10.9L63.2,52.29a7.71,7.71,0,0,0-10.9,0h0a7.71,7.71,0,0,0,0,10.9l5.46,5.46,10.9,10.9L74.1,85a7.71,7.71,0,0,1,0,10.9l-10.9,10.9a7.71,7.71,0,0,1-10.9,0l-5.45-5.45L36,90.46l-9.32-9.32-2.91-2.91L17.3,71.81l-4.64-4.64a15.86,15.86,0,0,1-1.1-1.23c-.68-1.15-3.86-6-2.87-7-1.44-1.45.36-5.71,1.18-7.46A10.6,10.6,0,0,1,11.4,49.6l5-5.06Z"/><path class="cls-57" d="M46.7,14l5.45-5.45a7.71,7.71,0,0,1,10.9,0L68.5,14l10.9,10.9,5.46,5.46a7.71,7.71,0,0,0,10.9,0l5.45-5.45L112.12,14l5.45-5.45a7.71,7.71,0,0,1,10.9,0l43.61,43.61a7.71,7.71,0,0,1,0,10.9l-5.45,5.45L161.17,74a7.71,7.71,0,0,1-10.9,0L128.46,52.15a7.71,7.71,0,0,0-10.9,0h0a7.71,7.71,0,0,0,0,10.9l21.81,21.81a7.71,7.71,0,0,1,0,10.9l-5.45,5.45-5.45,5.45a7.71,7.71,0,0,1-10.9,0L101.21,90.3,90.31,79.4,79.41,68.5,68.51,57.6l-5.46-5.46a7.71,7.71,0,0,0-10.9,0h0a7.71,7.71,0,0,0,0,10.9l5.46,5.46,10.9,10.9L74,84.86a7.71,7.71,0,0,1,0,10.9l-10.9,10.9a7.71,7.71,0,0,1-10.9,0l-5.45-5.45L35.8,90.31,26.51,81,23.6,78.11l-6.39-6.39-4.64-4.64a13.79,13.79,0,0,1-1.09-1.22c-.66-1.12-3.9-6-2.94-6.93-1.46-1.47.28-5.71,1.12-7.49a10.57,10.57,0,0,1,1.52-1.93l5.06-5.06Z"/><path class="cls-58" d="M46.55,13.84,52,8.39a7.71,7.71,0,0,1,10.9,0l5.45,5.45,10.9,10.9,5.46,5.46a7.71,7.71,0,0,0,10.9,0l5.45-5.45L112,13.84l5.45-5.45a7.71,7.71,0,0,1,10.9,0L171.93,52a7.71,7.71,0,0,1,0,10.9l-5.45,5.45L161,73.81a7.71,7.71,0,0,1-10.9,0L128.31,52a7.71,7.71,0,0,0-10.9,0h0a7.71,7.71,0,0,0,0,10.9l21.81,21.81a7.71,7.71,0,0,1,0,10.9l-5.45,5.45-5.45,5.45a7.71,7.71,0,0,1-10.9,0L101.06,90.15l-10.9-10.9-10.9-10.9-10.9-10.9L62.9,52A7.71,7.71,0,0,0,52,52h0a7.71,7.71,0,0,0,0,10.9l5.46,5.46,10.9,10.9,5.45,5.45a7.71,7.71,0,0,1,0,10.9l-10.9,10.9a7.71,7.71,0,0,1-10.9,0l-5.45-5.45-10.9-10.9L26.39,80.9,23.48,78l-6.37-6.37L12.49,67a15.37,15.37,0,0,1-1.09-1.22c-.65-1.09-3.94-6-3-6.9-1.49-1.49.2-5.71,1-7.51A10.3,10.3,0,0,1,11,49.43L16,44.36Z"/><path class="cls-59" d="M46.41,13.7l5.45-5.45a7.71,7.71,0,0,1,10.9,0l5.45,5.45,10.9,10.9,5.46,5.46a7.71,7.71,0,0,0,10.9,0l5.45-5.45L111.83,13.7l5.45-5.45a7.71,7.71,0,0,1,10.9,0l43.61,43.61a7.71,7.71,0,0,1,0,10.9l-5.45,5.45-5.46,5.46a7.71,7.71,0,0,1-10.9,0L128.17,51.86a7.71,7.71,0,0,0-10.9,0h0a7.71,7.71,0,0,0,0,10.9l21.81,21.81a7.71,7.71,0,0,1,0,10.9l-5.45,5.45-5.45,5.45a7.71,7.71,0,0,1-10.9,0L100.92,90,90,79.11l-10.9-10.9-10.9-10.9-5.46-5.46a7.71,7.71,0,0,0-10.9,0h0a7.71,7.71,0,0,0,0,10.9l5.46,5.46,10.9,10.9,5.45,5.45a7.71,7.71,0,0,1,0,10.9l-10.9,10.9a7.71,7.71,0,0,1-10.9,0l-5.45-5.45L35.51,90l-9.25-9.25-2.89-2.89L17,71.52,12.4,66.91a15.46,15.46,0,0,1-1.09-1.21c-.63-1.06-4-6-3.06-6.86-1.52-1.51.11-5.72,1-7.55a10.69,10.69,0,0,1,1.53-1.94l5.08-5.08Z"/><path class="cls-60" d="M46.26,13.55,51.71,8.1a7.71,7.71,0,0,1,10.9,0l5.45,5.45L79,24.45l5.46,5.46a7.71,7.71,0,0,0,10.9,0l5.45-5.45,10.91-10.91,5.45-5.45a7.71,7.71,0,0,1,10.9,0l43.61,43.61a7.71,7.71,0,0,1,0,10.9l-5.45,5.45-5.46,5.46a7.71,7.71,0,0,1-10.9,0L128,51.71a7.71,7.71,0,0,0-10.9,0h0a7.71,7.71,0,0,0,0,10.9l21.81,21.81a7.71,7.71,0,0,1,0,10.9l-5.45,5.45L128,106.22a7.71,7.71,0,0,1-10.9,0L100.77,89.86,89.87,79,79,68.06l-10.9-10.9L62.61,51.7a7.71,7.71,0,0,0-10.9,0h0a7.71,7.71,0,0,0,0,10.9l5.46,5.46L68.06,79l5.45,5.45a7.71,7.71,0,0,1,0,10.9l-10.9,10.9a7.71,7.71,0,0,1-10.9,0l-5.45-5.45-10.9-10.9-9.22-9.22-2.89-2.89-6.34-6.34-4.59-4.59a15.26,15.26,0,0,1-1.09-1.21c-.61-1-4-5.93-3.13-6.82-1.54-1.54,0-5.72.91-7.58a10.69,10.69,0,0,1,1.52-1.95l5.09-5.09Z"/><path class="cls-61" d="M46.11,13.4,51.56,8a7.71,7.71,0,0,1,10.9,0l5.45,5.45,10.9,10.9,5.46,5.46a7.71,7.71,0,0,0,10.9,0l5.45-5.45L111.53,13.4,117,8a7.71,7.71,0,0,1,10.9,0l43.61,43.61a7.71,7.71,0,0,1,0,10.9L166,67.91l-5.46,5.46a7.71,7.71,0,0,1-10.9,0L127.87,51.56a7.71,7.71,0,0,0-10.9,0h0a7.71,7.71,0,0,0,0,10.9l21.81,21.81a7.71,7.71,0,0,1,0,10.9l-5.45,5.45-5.45,5.45a7.71,7.71,0,0,1-10.9,0L100.62,89.71l-10.9-10.9-10.9-10.9L67.92,57l-5.46-5.46a7.71,7.71,0,0,0-10.9,0h0a7.71,7.71,0,0,0,0,10.9L57,67.92l10.9,10.9,5.45,5.45a7.71,7.71,0,0,1,0,10.9l-10.9,10.9a7.71,7.71,0,0,1-10.9,0l-5.45-5.45-10.9-10.9L26,80.53l-2.88-2.88-6.33-6.33-4.58-4.58c-.16-.16-1-1-1.09-1.2-.59-1-4.06-5.92-3.19-6.78-1.56-1.56,0-5.73.84-7.62a10,10,0,0,1,1.53-2l5.1-5.1Z"/><path class="cls-62" d="M46,13.25,51.41,7.8a7.71,7.71,0,0,1,10.9,0l5.45,5.45,10.9,10.9,5.46,5.46a7.71,7.71,0,0,0,10.9,0l5.45-5.45,10.91-10.91,5.45-5.45a7.71,7.71,0,0,1,10.9,0l43.61,43.61a7.71,7.71,0,0,1,0,10.9l-5.45,5.45-5.46,5.46a7.71,7.71,0,0,1-10.9,0L127.72,51.41a7.71,7.71,0,0,0-10.9,0h0a7.71,7.71,0,0,0,0,10.9l21.81,21.81a7.71,7.71,0,0,1,0,10.9l-5.45,5.45-5.45,5.45a7.71,7.71,0,0,1-10.9,0L100.47,89.56l-10.9-10.9-10.9-10.9-10.9-10.9L62.31,51.4a7.71,7.71,0,0,0-10.9,0h0a7.71,7.71,0,0,0,0,10.9l5.46,5.46,10.9,10.9,5.45,5.45a7.71,7.71,0,0,1,0,10.9l-10.9,10.9a7.71,7.71,0,0,1-10.9,0L46,100.47l-10.9-10.9L25.89,80.4,23,77.53l-6.3-6.3-4.58-4.58c-.15-.15-1-1-1.08-1.19-.58-1-4.1-5.91-3.26-6.75-1.58-1.58-.12-5.73.77-7.64a10.08,10.08,0,0,1,1.53-2L15.21,44Z"/><path class="cls-63" d="M45.81,13.1l5.45-5.45a7.71,7.71,0,0,1,10.9,0l5.45,5.45L78.51,24,84,29.46a7.71,7.71,0,0,0,10.9,0L100.32,24,111.23,13.1l5.45-5.45a7.71,7.71,0,0,1,10.9,0l43.61,43.61a7.71,7.71,0,0,1,0,10.9l-5.45,5.45-5.46,5.46a7.71,7.71,0,0,1-10.9,0L127.57,51.26a7.71,7.71,0,0,0-10.9,0h0a7.71,7.71,0,0,0,0,10.9L138.48,84a7.71,7.71,0,0,1,0,10.9L133,100.32l-5.45,5.45a7.71,7.71,0,0,1-10.9,0L100.32,89.41l-10.9-10.9-10.9-10.9-10.9-10.9-5.46-5.46a7.71,7.71,0,0,0-10.9,0h0a7.71,7.71,0,0,0,0,10.9l5.46,5.46,10.9,10.9L73.06,84a7.71,7.71,0,0,1,0,10.9l-10.9,10.9a7.71,7.71,0,0,1-10.9,0l-5.45-5.45-10.9-10.9-9.14-9.14-2.86-2.86-6.29-6.29-4.56-4.56c-.15-.15-1-1-1.08-1.19-.56-.95-4.14-5.9-3.33-6.71-1.6-1.6-.2-5.73.71-7.68a10,10,0,0,1,1.52-2L15,43.91Z"/><path class="cls-64" d="M45.66,13,51.11,7.5A7.71,7.71,0,0,1,62,7.5L67.46,13l10.9,10.9,5.46,5.46a7.71,7.71,0,0,0,10.9,0l5.45-5.45L111.08,13l5.45-5.45a7.71,7.71,0,0,1,10.9,0L171,51.11A7.71,7.71,0,0,1,171,62l-5.45,5.45-5.46,5.46a7.71,7.71,0,0,1-10.9,0L127.42,51.11a7.71,7.71,0,0,0-10.9,0h0a7.71,7.71,0,0,0,0,10.9l21.81,21.81a7.71,7.71,0,0,1,0,10.9l-5.45,5.45-5.45,5.45a7.71,7.71,0,0,1-10.9,0L100.17,89.26l-10.9-10.9-10.9-10.9-10.9-10.9L62,51.1a7.71,7.71,0,0,0-10.9,0h0a7.71,7.71,0,0,0,0,10.9l5.46,5.46,10.9,10.9,5.45,5.45a7.71,7.71,0,0,1,0,10.9L62,105.62a7.71,7.71,0,0,1-10.9,0l-5.45-5.45-10.9-10.9-9.11-9.11L22.79,77.3,16.52,71,12,66.48c-.14-.14-1-1-1.08-1.18-.54-.92-4.18-5.88-3.39-6.67-1.62-1.63-.28-5.74.64-7.71a10.14,10.14,0,0,1,1.53-2l5.13-5.13Z"/><path class="cls-65" d="M45.52,12.81,51,7.36a7.71,7.71,0,0,1,10.9,0l5.45,5.45,10.9,10.9,5.46,5.46a7.71,7.71,0,0,0,10.9,0L100,23.72l10.91-10.91,5.45-5.45a7.71,7.71,0,0,1,10.9,0L170.9,51a7.71,7.71,0,0,1,0,10.9l-5.45,5.45L160,72.78a7.71,7.71,0,0,1-10.9,0L127.28,51a7.71,7.71,0,0,0-10.9,0h0a7.71,7.71,0,0,0,0,10.9l21.81,21.81a7.71,7.71,0,0,1,0,10.9L132.74,100l-5.45,5.45a7.71,7.71,0,0,1-10.9,0L100,89.12l-10.9-10.9-10.9-10.9-10.9-10.9L61.87,51A7.71,7.71,0,0,0,51,51h0a7.71,7.71,0,0,0,0,10.9l5.46,5.46,10.9,10.9,5.45,5.45a7.71,7.71,0,0,1,0,10.9l-10.9,10.9a7.71,7.71,0,0,1-10.9,0L45.52,100l-10.9-10.9L25.52,80l-2.84-2.84-6.26-6.26L11.89,66.4c-.14-.14-1-1-1.08-1.18-.53-.89-4.22-5.87-3.45-6.63-1.65-1.65-.37-5.75.57-7.74a9.5,9.5,0,0,1,1.52-2l5.14-5.14Z"/><path class="cls-66" d="M45.37,12.66l5.45-5.45a7.71,7.71,0,0,1,10.9,0l5.45,5.45,10.9,10.9L83.53,29a7.71,7.71,0,0,0,10.9,0l5.45-5.45,10.91-10.91,5.45-5.45a7.71,7.71,0,0,1,10.9,0l43.61,43.61a7.71,7.71,0,0,1,0,10.9l-5.45,5.45-5.46,5.46a7.71,7.71,0,0,1-10.9,0L127.13,50.82a7.71,7.71,0,0,0-10.9,0h0a7.71,7.71,0,0,0,0,10.9L138,83.53a7.71,7.71,0,0,1,0,10.9l-5.45,5.45-5.45,5.45a7.71,7.71,0,0,1-10.9,0L99.88,89,89,78.07l-10.9-10.9-10.9-10.9-5.46-5.46a7.71,7.71,0,0,0-10.9,0h0a7.71,7.71,0,0,0,0,10.9l5.46,5.46,10.9,10.9,5.45,5.45a7.71,7.71,0,0,1,0,10.9l-10.9,10.9a7.71,7.71,0,0,1-10.9,0l-5.45-5.45L34.47,89,25.4,79.91l-2.84-2.84-6.24-6.24L11.8,66.31c-.13-.13-1-1-1.07-1.17-.52-.86-4.26-5.86-3.52-6.6-1.67-1.67-.45-5.74.5-7.77a9.55,9.55,0,0,1,1.53-2l5.15-5.15Z"/><path class="cls-67" d="M45.22,12.51l5.45-5.45a7.71,7.71,0,0,1,10.9,0L67,12.51l10.9,10.9,5.46,5.46a7.71,7.71,0,0,0,10.9,0l5.45-5.45,10.91-10.91,5.45-5.45a7.71,7.71,0,0,1,10.9,0L170.6,50.67a7.71,7.71,0,0,1,0,10.9L165.15,67l-5.46,5.46a7.71,7.71,0,0,1-10.9,0L127,50.67a7.71,7.71,0,0,0-10.9,0h0a7.71,7.71,0,0,0,0,10.9l21.81,21.81a7.71,7.71,0,0,1,0,10.9l-5.45,5.45L127,105.18a7.71,7.71,0,0,1-10.9,0L99.73,88.82l-10.9-10.9L77.93,67,67,56.12l-5.46-5.46a7.71,7.71,0,0,0-10.9,0h0a7.71,7.71,0,0,0,0,10.9L56.12,67,67,77.93l5.45,5.45a7.71,7.71,0,0,1,0,10.9l-10.9,10.9a7.71,7.71,0,0,1-10.9,0l-5.45-5.45-10.9-10.9-9-9L22.45,77l-6.22-6.22-4.51-4.51c-.13-.13-1-1-1.08-1.17-.49-.84-4.3-5.84-3.58-6.56-1.7-1.7-.53-5.75.43-7.8a9.61,9.61,0,0,1,1.53-2l5.16-5.16Z"/><path class="cls-68" d="M45.07,12.36l5.45-5.45a7.71,7.71,0,0,1,10.9,0l5.45,5.45,10.9,10.9,5.46,5.46a7.71,7.71,0,0,0,10.9,0l5.45-5.45,10.91-10.91,5.45-5.45a7.71,7.71,0,0,1,10.9,0l43.61,43.61a7.71,7.71,0,0,1,0,10.9L165,66.87l-5.46,5.46a7.71,7.71,0,0,1-10.9,0L126.83,50.52a7.71,7.71,0,0,0-10.9,0h0a7.71,7.71,0,0,0,0,10.9l21.81,21.81a7.71,7.71,0,0,1,0,10.9l-5.45,5.45L126.84,105a7.71,7.71,0,0,1-10.9,0L99.58,88.67l-10.9-10.9-10.9-10.9L66.88,56l-5.46-5.46a7.71,7.71,0,0,0-10.9,0h0a7.71,7.71,0,0,0,0,10.9L56,66.88l10.9,10.9,5.45,5.45a7.71,7.71,0,0,1,0,10.9L61.42,105a7.71,7.71,0,0,1-10.9,0l-5.45-5.45-10.9-10.9-9-9-2.82-2.82-6.2-6.2-4.5-4.5c-.12-.12-1-1-1.07-1.16-.48-.81-4.34-5.83-3.65-6.52-1.72-1.72-.61-5.76.37-7.84a9.56,9.56,0,0,1,1.52-2L14,43.46Z"/><path class="cls-69" d="M44.92,12.21l5.45-5.45a7.71,7.71,0,0,1,10.9,0l5.45,5.45,10.9,10.9,5.46,5.46a7.71,7.71,0,0,0,10.9,0l5.45-5.45,10.91-10.91,5.45-5.45a7.71,7.71,0,0,1,10.9,0L170.3,50.37a7.71,7.71,0,0,1,0,10.9l-5.45,5.45-5.46,5.46a7.71,7.71,0,0,1-10.9,0L126.68,50.37a7.71,7.71,0,0,0-10.9,0h0a7.71,7.71,0,0,0,0,10.9l21.81,21.81a7.71,7.71,0,0,1,0,10.9l-5.45,5.45-5.45,5.45a7.71,7.71,0,0,1-10.9,0L99.43,88.52l-10.9-10.9-10.9-10.9-10.9-10.9-5.46-5.46a7.71,7.71,0,0,0-10.9,0h0a7.71,7.71,0,0,0,0,10.9l5.46,5.46,10.9,10.9,5.45,5.45a7.71,7.71,0,0,1,0,10.9l-10.9,10.9a7.71,7.71,0,0,1-10.9,0l-5.45-5.45L34,88.53l-9-9-2.81-2.81L16,70.54l-4.48-4.48c-.13-.13-1-1-1.08-1.17-.46-.77-4.37-5.81-3.71-6.47-1.74-1.75-.69-5.76.3-7.87a9.33,9.33,0,0,1,1.53-2l5.18-5.19Z"/><path class="cls-70" d="M44.77,12.06l5.45-5.45a7.71,7.71,0,0,1,10.9,0l5.45,5.45L77.47,23l5.46,5.46a7.71,7.71,0,0,0,10.9,0L99.28,23l10.91-10.91,5.45-5.45a7.71,7.71,0,0,1,10.9,0l43.61,43.61a7.71,7.71,0,0,1,0,10.9l-5.45,5.45L159.24,72a7.71,7.71,0,0,1-10.9,0L126.53,50.22a7.71,7.71,0,0,0-10.9,0h0a7.71,7.71,0,0,0,0,10.9l21.81,21.81a7.71,7.71,0,0,1,0,10.9L132,99.28l-5.45,5.45a7.71,7.71,0,0,1-10.9,0L99.28,88.37l-10.9-10.9-10.9-10.9-10.9-10.9-5.46-5.46a7.71,7.71,0,0,0-10.9,0h0a7.71,7.71,0,0,0,0,10.9l5.46,5.46,10.9,10.9L72,82.93a7.71,7.71,0,0,1,0,10.9l-10.9,10.9a7.71,7.71,0,0,1-10.9,0l-5.45-5.45-10.9-10.9-9-9L22.1,76.61l-6.17-6.17L11.46,66c-.12-.12-1-1-1.07-1.16C10,64.07,6,59,6.61,58.37c-1.76-1.76-.77-5.76.24-7.9a9.28,9.28,0,0,1,1.52-2l5.19-5.2Z"/><path class="cls-71" d="M44.63,11.92l5.45-5.45a7.71,7.71,0,0,1,10.9,0l5.45,5.45,10.9,10.9,5.46,5.46a7.71,7.71,0,0,0,10.9,0l5.45-5.45,10.91-10.91,5.45-5.45a7.71,7.71,0,0,1,10.9,0L170,50.08A7.71,7.71,0,0,1,170,61l-5.45,5.45-5.46,5.46a7.71,7.71,0,0,1-10.9,0L126.39,50.08a7.71,7.71,0,0,0-10.9,0h0a7.71,7.71,0,0,0,0,10.9L137.3,82.79a7.71,7.71,0,0,1,0,10.9l-5.45,5.45-5.45,5.45a7.71,7.71,0,0,1-10.9,0L99.14,88.23l-10.9-10.9-10.9-10.9-10.9-10.9L61,50.07a7.71,7.71,0,0,0-10.9,0h0a7.71,7.71,0,0,0,0,10.9l5.46,5.46,10.9,10.9,5.45,5.45a7.71,7.71,0,0,1,0,10.9L61,104.59a7.71,7.71,0,0,1-10.9,0l-5.45-5.45-10.9-10.9L24.79,79.3,22,76.5l-6.16-6.16-4.45-4.45c-.12-.12-1-1-1.07-1.16C9.88,64,5.85,59,6.47,58.33c-1.79-1.79-.85-5.77.16-7.93a8.84,8.84,0,0,1,1.53-2l5.2-5.21Z"/><path class="cls-72" d="M44.48,11.77l5.45-5.45a7.71,7.71,0,0,1,10.9,0l5.45,5.45,10.9,10.9,5.46,5.46a7.71,7.71,0,0,0,10.9,0L99,22.68,109.9,11.77l5.45-5.45a7.71,7.71,0,0,1,10.9,0l43.61,43.61a7.71,7.71,0,0,1,0,10.9l-5.45,5.45L159,71.74a7.71,7.71,0,0,1-10.9,0L126.24,49.93a7.71,7.71,0,0,0-10.9,0h0a7.71,7.71,0,0,0,0,10.9l21.81,21.81a7.71,7.71,0,0,1,0,10.9L131.7,99l-5.45,5.45a7.71,7.71,0,0,1-10.9,0L99,88.08l-10.9-10.9-10.9-10.9-10.9-10.9-5.46-5.46a7.71,7.71,0,0,0-10.9,0h0a7.71,7.71,0,0,0,0,10.9l5.46,5.46,10.9,10.9,5.45,5.45a7.71,7.71,0,0,1,0,10.9l-10.9,10.9a7.71,7.71,0,0,1-10.9,0L44.48,99l-10.9-10.9-8.92-8.92-2.79-2.79-6.13-6.13L11.29,65.8c-.11-.11-1-1-1.07-1.15-.41-.69-4.5-5.77-3.9-6.36-1.81-1.81-.93-5.77.09-8a9.25,9.25,0,0,1,1.53-2l5.21-5.21Z"/><path class="cls-73" d="M44.33,11.62l5.45-5.45a7.71,7.71,0,0,1,10.9,0l5.45,5.45L77,22.52,82.49,28a7.71,7.71,0,0,0,10.9,0l5.45-5.45,10.91-10.91,5.45-5.45a7.71,7.71,0,0,1,10.9,0l43.61,43.61a7.71,7.71,0,0,1,0,10.9l-5.45,5.45-5.46,5.46a7.71,7.71,0,0,1-10.9,0L126.09,49.78a7.71,7.71,0,0,0-10.9,0h0a7.71,7.71,0,0,0,0,10.9L137,82.49a7.71,7.71,0,0,1,0,10.9l-5.45,5.45-5.45,5.45a7.71,7.71,0,0,1-10.9,0L98.84,87.93,87.94,77,77,66.13l-10.9-10.9-5.46-5.46a7.71,7.71,0,0,0-10.9,0h0a7.71,7.71,0,0,0,0,10.9l5.46,5.46L66.13,77l5.45,5.45a7.71,7.71,0,0,1,0,10.9l-10.9,10.9a7.71,7.71,0,0,1-10.9,0l-5.45-5.45-10.9-10.9-8.89-8.89-2.78-2.78-6.12-6.12-4.43-4.43c-.11-.11-1-1-1.07-1.15-.39-.66-4.54-5.76-4-6.32-1.83-1.84-1-5.78,0-8a9.12,9.12,0,0,1,1.52-2L13,43Z"/><path class="cls-74" d="M44.18,11.47,49.63,6a7.71,7.71,0,0,1,10.9,0L66,11.47l10.9,10.9,5.46,5.46a7.71,7.71,0,0,0,10.9,0l5.45-5.45L109.6,11.47,115.05,6A7.71,7.71,0,0,1,126,6l43.61,43.61a7.71,7.71,0,0,1,0,10.9L164.11,66l-5.46,5.46a7.71,7.71,0,0,1-10.9,0L125.94,49.63a7.71,7.71,0,0,0-10.9,0h0a7.71,7.71,0,0,0,0,10.9l21.81,21.81a7.71,7.71,0,0,1,0,10.9l-5.45,5.45L126,104.14a7.71,7.71,0,0,1-10.9,0L98.69,87.78l-10.9-10.9L76.89,66,66,55.08l-5.46-5.46a7.71,7.71,0,0,0-10.9,0h0a7.71,7.71,0,0,0,0,10.9L55.08,66,66,76.89l5.45,5.45a7.71,7.71,0,0,1,0,10.9l-10.9,10.9a7.71,7.71,0,0,1-10.9,0l-5.45-5.45-10.9-10.9-8.86-8.86-2.78-2.78-6.1-6.1-4.42-4.42c-.1-.1-1-1-1.07-1.14-.37-.63-4.57-5.74-4-6.29-1.85-1.85-1.09-5.78,0-8a9,9,0,0,1,1.53-2l5.23-5.23Z"/><path class="cls-75" d="M44,11.32l5.45-5.45a7.71,7.71,0,0,1,10.9,0l5.45,5.45,10.9,10.9,5.46,5.46a7.71,7.71,0,0,0,10.9,0l5.45-5.45,10.91-10.91,5.45-5.45a7.71,7.71,0,0,1,10.9,0l43.61,43.61a7.71,7.71,0,0,1,0,10.9L164,65.83l-5.46,5.46a7.71,7.71,0,0,1-10.9,0L125.79,49.48a7.71,7.71,0,0,0-10.9,0h0a7.71,7.71,0,0,0,0,10.9L136.7,82.19a7.71,7.71,0,0,1,0,10.9l-5.45,5.45L125.8,104a7.71,7.71,0,0,1-10.9,0L98.54,87.63l-10.9-10.9-10.9-10.9-10.9-10.9-5.46-5.46a7.71,7.71,0,0,0-10.9,0h0a7.71,7.71,0,0,0,0,10.9l5.46,5.46,10.9,10.9,5.45,5.45a7.71,7.71,0,0,1,0,10.9L60.38,104a7.71,7.71,0,0,1-10.9,0L44,98.54l-10.9-10.9L24.29,78.8,21.53,76,15.44,70,11,65.54c-.09-.09-1-1-1.06-1.13-.36-.6-4.62-5.73-4.1-6.25C4,56.28,4.7,52.38,5.77,50.1a8.88,8.88,0,0,1,1.52-2l5.24-5.24Z"/><path class="cls-76" d="M43.88,11.17l5.45-5.45a7.71,7.71,0,0,1,10.9,0l5.45,5.45,10.9,10.9L82,27.53a7.71,7.71,0,0,0,10.9,0l5.45-5.45L109.3,11.17l5.45-5.45a7.71,7.71,0,0,1,10.9,0l43.61,43.61a7.71,7.71,0,0,1,0,10.9l-5.45,5.45-5.46,5.46a7.71,7.71,0,0,1-10.9,0L125.64,49.33a7.71,7.71,0,0,0-10.9,0h0a7.71,7.71,0,0,0,0,10.9L136.55,82a7.71,7.71,0,0,1,0,10.9l-5.45,5.45-5.45,5.45a7.71,7.71,0,0,1-10.9,0L98.39,87.48l-10.9-10.9-10.9-10.9-10.9-10.9-5.46-5.46a7.71,7.71,0,0,0-10.9,0h0a7.71,7.71,0,0,0,0,10.9l5.46,5.46,10.9,10.9L71.13,82a7.71,7.71,0,0,1,0,10.9l-10.9,10.9a7.71,7.71,0,0,1-10.9,0l-5.45-5.45L33,87.49l-8.81-8.81-2.76-2.76-6.07-6.07L11,65.46c-.09-.09-1-1-1.06-1.13-.34-.57-4.66-5.72-4.17-6.21-1.9-1.9-1.25-5.79-.17-8.09A8.77,8.77,0,0,1,7.08,48l5.25-5.25Z"/><path class="cls-77" d="M43.74,11l5.45-5.45a7.71,7.71,0,0,1,10.9,0L65.54,11l10.9,10.9,5.46,5.46a7.71,7.71,0,0,0,10.9,0l5.45-5.45L109.16,11l5.45-5.45a7.71,7.71,0,0,1,10.9,0l43.61,43.61a7.71,7.71,0,0,1,0,10.9l-5.45,5.45L158.21,71a7.71,7.71,0,0,1-10.9,0L125.5,49.19a7.71,7.71,0,0,0-10.9,0h0a7.71,7.71,0,0,0,0,10.9L136.41,81.9a7.71,7.71,0,0,1,0,10.9L131,98.25l-5.45,5.45a7.71,7.71,0,0,1-10.9,0L98.25,87.34l-10.9-10.9-10.9-10.9-10.9-10.9-5.46-5.46a7.71,7.71,0,0,0-10.9,0h0a7.71,7.71,0,0,0,0,10.9l5.46,5.46,10.9,10.9L71,81.9a7.71,7.71,0,0,1,0,10.9l-10.9,10.9a7.71,7.71,0,0,1-10.9,0l-5.45-5.45-10.9-10.9-8.79-8.79L21.3,75.81l-6.06-6.06-4.38-4.38c-.08-.08-1-1-1.06-1.12-.32-.55-4.69-5.71-4.22-6.17-1.93-1.93-1.34-5.8-.25-8.13A8.77,8.77,0,0,1,6.86,47.9l5.26-5.26Z"/><path class="cls-78" d="M43.59,10.88,49,5.43a7.71,7.71,0,0,1,10.9,0l5.45,5.45,10.9,10.9,5.46,5.46a7.71,7.71,0,0,0,10.9,0l5.45-5.45L109,10.88l5.45-5.45a7.71,7.71,0,0,1,10.9,0L169,49a7.71,7.71,0,0,1,0,10.9l-5.45,5.45-5.46,5.46a7.71,7.71,0,0,1-10.9,0L125.35,49a7.71,7.71,0,0,0-10.9,0h0a7.71,7.71,0,0,0,0,10.9l21.81,21.81a7.71,7.71,0,0,1,0,10.9l-5.45,5.45-5.45,5.45a7.71,7.71,0,0,1-10.9,0L98.1,87.19,87.2,76.29,76.3,65.39,65.4,54.49,59.94,49A7.71,7.71,0,0,0,49,49h0a7.71,7.71,0,0,0,0,10.9l5.46,5.46,10.9,10.9,5.45,5.45a7.71,7.71,0,0,1,0,10.9l-10.9,10.9a7.71,7.71,0,0,1-10.9,0L43.59,98.1,32.69,87.2l-8.77-8.77-2.74-2.74-6-6-4.37-4.37c-.08-.08-1-1-1.06-1.12C9.41,63.65,5,58.48,5.43,58,3.48,56.09,4,52.24,5.12,49.88a8.77,8.77,0,0,1,1.52-2.06l5.28-5.27Z"/><path class="cls-79" d="M43.44,10.73l5.45-5.45a7.71,7.71,0,0,1,10.9,0l5.45,5.45,10.9,10.9,5.46,5.46a7.71,7.71,0,0,0,10.9,0L98,21.64l10.91-10.91,5.45-5.45a7.71,7.71,0,0,1,10.9,0l43.61,43.61a7.71,7.71,0,0,1,0,10.9l-5.45,5.45-5.46,5.46a7.71,7.71,0,0,1-10.9,0L125.2,48.89a7.71,7.71,0,0,0-10.9,0h0a7.71,7.71,0,0,0,0,10.9L136.11,81.6a7.71,7.71,0,0,1,0,10.9L130.66,98l-5.45,5.45a7.71,7.71,0,0,1-10.9,0L98,87l-10.9-10.9-10.9-10.9-10.9-10.9-5.46-5.46a7.71,7.71,0,0,0-10.9,0h0a7.71,7.71,0,0,0,0,10.9l5.46,5.46,10.9,10.9,5.45,5.45a7.71,7.71,0,0,1,0,10.9l-10.9,10.9a7.71,7.71,0,0,1-10.9,0L43.44,98l-10.9-10.9L23.8,78.31l-2.73-2.73-6-6L10.69,65.2c-.07-.07-1-1-1.06-1.11-.29-.49-4.77-5.68-4.35-6.1-2-2-1.5-5.8-.38-8.18a8.66,8.66,0,0,1,1.53-2.07l5.28-5.28Z"/><path class="cls-80" d="M43.29,10.58l5.45-5.45a7.71,7.71,0,0,1,10.9,0l5.45,5.45L76,21.48l5.46,5.46a7.71,7.71,0,0,0,10.9,0l5.45-5.45,10.91-10.91,5.45-5.45a7.71,7.71,0,0,1,10.9,0l43.61,43.61a7.71,7.71,0,0,1,0,10.9l-5.45,5.45-5.46,5.46a7.71,7.71,0,0,1-10.9,0L125.05,48.74a7.71,7.71,0,0,0-10.9,0h0a7.71,7.71,0,0,0,0,10.9L136,81.45a7.71,7.71,0,0,1,0,10.9l-5.45,5.45-5.45,5.45a7.71,7.71,0,0,1-10.9,0L97.8,86.89,86.9,76,76,65.09,65.1,54.19l-5.46-5.46a7.71,7.71,0,0,0-10.9,0h0a7.71,7.71,0,0,0,0,10.9l5.46,5.46L65.09,76l5.45,5.45a7.71,7.71,0,0,1,0,10.9l-10.9,10.9a7.71,7.71,0,0,1-10.9,0L43.29,97.8,32.39,86.9l-8.71-8.71L21,75.46l-6-6-4.34-4.34c-.07-.07-1-1-1.06-1.11-.27-.46-4.81-5.67-4.42-6.06-2-2-1.58-5.81-.44-8.22a8.55,8.55,0,0,1,1.52-2.07l5.29-5.29Z"/><path class="cls-81" d="M43.14,10.43,48.59,5a7.71,7.71,0,0,1,10.9,0l5.45,5.45,10.9,10.9,5.46,5.46a7.71,7.71,0,0,0,10.9,0l5.45-5.45,10.91-10.91L114,5a7.71,7.71,0,0,1,10.9,0l43.61,43.61a7.71,7.71,0,0,1,0,10.9l-5.45,5.45-5.46,5.46a7.71,7.71,0,0,1-10.9,0L124.9,48.59a7.71,7.71,0,0,0-10.9,0h0a7.71,7.71,0,0,0,0,10.9L135.81,81.3a7.71,7.71,0,0,1,0,10.9l-5.45,5.45-5.45,5.45a7.71,7.71,0,0,1-10.9,0L97.65,86.74l-10.9-10.9-10.9-10.9L65,54l-5.46-5.46a7.71,7.71,0,0,0-10.9,0h0a7.71,7.71,0,0,0,0,10.9L54,65l10.9,10.9,5.45,5.45a7.71,7.71,0,0,1,0,10.9l-10.9,10.9a7.71,7.71,0,0,1-10.9,0l-5.45-5.45-10.9-10.9-8.69-8.69-2.71-2.71-6-6L10.52,65c-.07-.07-1-1-1-1.1-.26-.43-4.86-5.65-4.49-6-2-2-1.66-5.81-.51-8.25A8,8,0,0,1,6,47.58l5.3-5.3Z"/><path class="cls-82" d="M43,10.28l5.45-5.45a7.71,7.71,0,0,1,10.9,0l5.45,5.45,10.9,10.9,5.46,5.46a7.71,7.71,0,0,0,10.9,0l5.45-5.45,10.91-10.91,5.45-5.45a7.71,7.71,0,0,1,10.9,0l43.61,43.61a7.71,7.71,0,0,1,0,10.9l-5.45,5.45-5.46,5.46a7.71,7.71,0,0,1-10.9,0L124.75,48.44a7.71,7.71,0,0,0-10.9,0h0a7.71,7.71,0,0,0,0,10.9l21.81,21.81a7.71,7.71,0,0,1,0,10.9l-5.45,5.45L124.76,103a7.71,7.71,0,0,1-10.9,0L97.5,86.59,86.6,75.69,75.7,64.79,64.8,53.89l-5.46-5.46a7.71,7.71,0,0,0-10.9,0h0a7.71,7.71,0,0,0,0,10.9l5.46,5.46,10.9,10.9,5.45,5.45a7.71,7.71,0,0,1,0,10.9L59.34,103a7.71,7.71,0,0,1-10.9,0L43,97.5,32.09,86.6l-8.66-8.66-2.71-2.71-6-6L10.44,65c-.07-.07-1-1-1.06-1.1-.24-.41-4.89-5.64-4.55-6-2-2-1.73-5.81-.58-8.28A8.45,8.45,0,0,1,5.78,47.5l5.31-5.31Z"/><path class="cls-83" d="M42.85,10.14,48.3,4.69a7.71,7.71,0,0,1,10.9,0l5.45,5.45L75.55,21,81,26.5a7.71,7.71,0,0,0,10.9,0l5.45-5.45,10.91-10.91,5.45-5.45a7.71,7.71,0,0,1,10.9,0L168.23,48.3a7.71,7.71,0,0,1,0,10.9l-5.45,5.45-5.46,5.46a7.71,7.71,0,0,1-10.9,0L124.61,48.3a7.71,7.71,0,0,0-10.9,0h0a7.71,7.71,0,0,0,0,10.9L135.52,81a7.71,7.71,0,0,1,0,10.9l-5.45,5.45-5.45,5.45a7.71,7.71,0,0,1-10.9,0L97.36,86.45l-10.9-10.9-10.9-10.9-10.9-10.9L59.2,48.29a7.71,7.71,0,0,0-10.9,0h0a7.71,7.71,0,0,0,0,10.9l5.46,5.46,10.9,10.9L70.1,81a7.71,7.71,0,0,1,0,10.9l-10.9,10.9a7.71,7.71,0,0,1-10.9,0l-5.45-5.45L32,86.46l-8.64-8.64-2.7-2.7-5.95-6-4.31-4.31c-.06-.06-1-1-1-1.09-.22-.38-4.94-5.63-4.61-6C2.62,55.76,2.87,52,4,49.51a8.28,8.28,0,0,1,1.52-2.09l5.33-5.32Z"/><path class="cls-84" d="M42.7,10l5.45-5.45a7.71,7.71,0,0,1,10.9,0L64.5,10l10.9,10.9,5.46,5.46a7.71,7.71,0,0,0,10.9,0l5.45-5.45L108.12,10l5.45-5.45a7.71,7.71,0,0,1,10.9,0l43.61,43.61a7.71,7.71,0,0,1,0,10.9l-5.45,5.45L157.17,70a7.71,7.71,0,0,1-10.9,0L124.46,48.15a7.71,7.71,0,0,0-10.9,0h0a7.71,7.71,0,0,0,0,10.9l21.81,21.81a7.71,7.71,0,0,1,0,10.9l-5.45,5.45-5.45,5.45a7.71,7.71,0,0,1-10.9,0L97.21,86.3,86.31,75.4,75.41,64.5,64.51,53.6l-5.46-5.46a7.71,7.71,0,0,0-10.9,0h0a7.71,7.71,0,0,0,0,10.9l5.46,5.46,10.9,10.9L70,80.86a7.71,7.71,0,0,1,0,10.9l-10.9,10.9a7.71,7.71,0,0,1-10.9,0L42.7,97.21,31.8,86.31,23.19,77.7,20.49,75l-5.93-5.93-4.29-4.29c-.06-.06-1-1-1.06-1.09-.2-.35-5-5.62-4.67-5.91-2.09-2.09-1.9-5.82-.72-8.35a8.25,8.25,0,0,1,1.53-2.09L10.68,42Z"/><path class="cls-85" d="M42.55,9.84,48,4.39a7.71,7.71,0,0,1,10.9,0l5.45,5.45,10.9,10.9,5.46,5.46a7.71,7.71,0,0,0,10.9,0l5.45-5.45L108,9.84l5.45-5.45a7.71,7.71,0,0,1,10.9,0L167.93,48a7.71,7.71,0,0,1,0,10.9l-5.45,5.45L157,69.81a7.71,7.71,0,0,1-10.9,0L124.31,48a7.71,7.71,0,0,0-10.9,0h0a7.71,7.71,0,0,0,0,10.9l21.81,21.81a7.71,7.71,0,0,1,0,10.9l-5.45,5.45-5.45,5.45a7.71,7.71,0,0,1-10.9,0L97.06,86.15l-10.9-10.9-10.9-10.9-10.9-10.9L58.9,48A7.71,7.71,0,0,0,48,48h0a7.71,7.71,0,0,0,0,10.9l5.46,5.46,10.9,10.9,5.45,5.45a7.71,7.71,0,0,1,0,10.9l-10.9,10.9a7.71,7.71,0,0,1-10.9,0l-5.45-5.45-10.9-10.9-8.59-8.59-2.69-2.69L14.46,69l-4.28-4.28s-1-1-1-1.09c-.19-.31-5-5.59-4.74-5.87-2.11-2.1-2-5.82-.79-8.37a8.3,8.3,0,0,1,1.53-2.1l5.34-5.35Z"/><path class="cls-86" d="M42.4,9.69l5.45-5.45a7.71,7.71,0,0,1,10.9,0L64.2,9.69l10.9,10.9,5.46,5.46a7.71,7.71,0,0,0,10.9,0l5.45-5.45L107.82,9.69l5.45-5.45a7.71,7.71,0,0,1,10.9,0l43.61,43.61a7.71,7.71,0,0,1,0,10.9l-5.45,5.45-5.46,5.46a7.71,7.71,0,0,1-10.9,0L124.16,47.85a7.71,7.71,0,0,0-10.9,0h0a7.71,7.71,0,0,0,0,10.9l21.81,21.81a7.71,7.71,0,0,1,0,10.9l-5.45,5.45-5.45,5.45a7.71,7.71,0,0,1-10.9,0L96.91,86,86,75.1,75.11,64.2,64.21,53.3l-5.46-5.46a7.71,7.71,0,0,0-10.9,0h0a7.71,7.71,0,0,0,0,10.9l5.46,5.46,10.9,10.9,5.45,5.45a7.71,7.71,0,0,1,0,10.9l-10.9,10.9a7.71,7.71,0,0,1-10.9,0L42.4,96.91,31.5,86l-8.56-8.56-2.68-2.68-5.9-5.9L10.1,64.61s-1-1-1-1.09c-.17-.28-5.06-5.58-4.81-5.83-2.13-2.13-2.06-5.82-.85-8.4a8.16,8.16,0,0,1,1.53-2.12l5.35-5.35Z"/><path class="cls-87" d="M42.25,9.54,47.7,4.09a7.71,7.71,0,0,1,10.9,0l5.45,5.45L75,20.44l5.46,5.46a7.71,7.71,0,0,0,10.9,0l5.45-5.45L107.67,9.54l5.45-5.45a7.71,7.71,0,0,1,10.9,0L167.63,47.7a7.71,7.71,0,0,1,0,10.9l-5.45,5.45-5.46,5.46a7.71,7.71,0,0,1-10.9,0L124,47.7a7.71,7.71,0,0,0-10.9,0h0a7.71,7.71,0,0,0,0,10.9l21.81,21.81a7.71,7.71,0,0,1,0,10.9l-5.45,5.45L124,102.21a7.71,7.71,0,0,1-10.9,0L96.76,85.85,85.86,75,75,64.05l-10.9-10.9L58.6,47.69a7.71,7.71,0,0,0-10.9,0h0a7.71,7.71,0,0,0,0,10.9l5.46,5.46L64.05,75l5.45,5.45a7.71,7.71,0,0,1,0,10.9l-10.9,10.9a7.71,7.71,0,0,1-10.9,0l-5.45-5.45-10.9-10.9-8.53-8.53-2.68-2.68-5.88-5.88L10,64.52s-1-1-1-1.08c-.15-.26-5.09-5.57-4.87-5.79C1.94,55.5,2,51.82,3.17,49.21A8.4,8.4,0,0,1,4.7,47.09l5.36-5.36Z"/><path class="cls-88" d="M42.1,9.39l5.45-5.45a7.71,7.71,0,0,1,10.9,0L63.9,9.39l10.9,10.9,5.46,5.46a7.71,7.71,0,0,0,10.9,0l5.45-5.45L107.52,9.39,113,3.94a7.71,7.71,0,0,1,10.9,0l43.61,43.61a7.71,7.71,0,0,1,0,10.9L162,63.9l-5.46,5.46a7.71,7.71,0,0,1-10.9,0L123.86,47.55a7.71,7.71,0,0,0-10.9,0h0a7.71,7.71,0,0,0,0,10.9l21.81,21.81a7.71,7.71,0,0,1,0,10.9l-5.45,5.45-5.45,5.45a7.71,7.71,0,0,1-10.9,0L96.61,85.7,85.71,74.8,74.81,63.9,63.91,53l-5.46-5.46a7.71,7.71,0,0,0-10.9,0h0a7.71,7.71,0,0,0,0,10.9L53,63.91l10.9,10.9,5.45,5.45a7.71,7.71,0,0,1,0,10.9l-10.9,10.9a7.71,7.71,0,0,1-10.9,0L42.1,96.61,31.2,85.71,22.69,77.2,20,74.54l-5.86-5.86L9.92,64.43s-1-1-1-1.07c-.14-.23-5.13-5.55-4.94-5.75-2.17-2.18-2.22-5.84-1-8.47A8,8,0,0,1,4.49,47l5.37-5.37Z"/><path class="cls-89" d="M42,9.25,47.41,3.8a7.71,7.71,0,0,1,10.9,0l5.45,5.45,10.9,10.9,5.46,5.46a7.71,7.71,0,0,0,10.9,0l5.45-5.45L107.38,9.25l5.45-5.45a7.71,7.71,0,0,1,10.9,0l43.61,43.61a7.71,7.71,0,0,1,0,10.9l-5.45,5.45-5.46,5.46a7.71,7.71,0,0,1-10.9,0L123.72,47.41a7.71,7.71,0,0,0-10.9,0h0a7.71,7.71,0,0,0,0,10.9l21.81,21.81a7.71,7.71,0,0,1,0,10.9l-5.45,5.45-5.45,5.45a7.71,7.71,0,0,1-10.9,0L96.47,85.56l-10.9-10.9-10.9-10.9-10.9-10.9L58.31,47.4a7.71,7.71,0,0,0-10.9,0h0a7.71,7.71,0,0,0,0,10.9l5.46,5.46,10.9,10.9,5.45,5.45a7.71,7.71,0,0,1,0,10.9l-10.9,10.9a7.71,7.71,0,0,1-10.9,0L42,96.47l-10.9-10.9-8.49-8.49-2.66-2.66-5.84-5.84L9.84,64.35,8.79,63.28c-.11-.2-5.17-5.54-5-5.72-2.2-2.19-2.31-5.83-1.06-8.5a8,8,0,0,1,1.53-2.13l5.38-5.38Z"/><path class="cls-90" d="M41.81,9.1l5.45-5.45a7.71,7.71,0,0,1,10.9,0L63.61,9.1,74.51,20,80,25.46a7.71,7.71,0,0,0,10.9,0L96.32,20,107.23,9.1l5.45-5.45a7.71,7.71,0,0,1,10.9,0l43.61,43.61a7.71,7.71,0,0,1,0,10.9l-5.45,5.45-5.46,5.46a7.71,7.71,0,0,1-10.9,0L123.57,47.26a7.71,7.71,0,0,0-10.9,0h0a7.71,7.71,0,0,0,0,10.9L134.48,80a7.71,7.71,0,0,1,0,10.9L129,96.32l-5.45,5.45a7.71,7.71,0,0,1-10.9,0L96.32,85.41l-10.9-10.9-10.9-10.9-10.9-10.9-5.46-5.46a7.71,7.71,0,0,0-10.9,0h0a7.71,7.71,0,0,0,0,10.9l5.46,5.46,10.9,10.9L69.06,80a7.71,7.71,0,0,1,0,10.9l-10.9,10.9a7.71,7.71,0,0,1-10.9,0l-5.45-5.45-10.9-10.9L22.45,77,19.8,74.31,14,68.48,9.75,64.26l-1-1.06c-.1-.17-5.21-5.53-5.06-5.68C1.43,55.3,1.26,51.68,2.52,49a8.09,8.09,0,0,1,1.53-2.14l5.39-5.39Z"/><path class="cls-91" d="M41.66,9,47.11,3.5A7.71,7.71,0,0,1,58,3.5L63.46,9l10.9,10.9,5.46,5.46a7.71,7.71,0,0,0,10.9,0l5.45-5.45L107.08,9l5.45-5.45a7.71,7.71,0,0,1,10.9,0L167,47.11A7.71,7.71,0,0,1,167,58l-5.45,5.45-5.46,5.46a7.71,7.71,0,0,1-10.9,0L123.42,47.11a7.71,7.71,0,0,0-10.9,0h0a7.71,7.71,0,0,0,0,10.9l21.81,21.81a7.71,7.71,0,0,1,0,10.9l-5.45,5.45-5.45,5.45a7.71,7.71,0,0,1-10.9,0L96.17,85.26l-10.9-10.9-10.9-10.9-10.9-10.9L58,47.1a7.71,7.71,0,0,0-10.9,0h0a7.71,7.71,0,0,0,0,10.9l5.46,5.46,10.9,10.9,5.45,5.45a7.71,7.71,0,0,1,0,10.9L58,101.62a7.71,7.71,0,0,1-10.9,0l-5.45-5.45-10.9-10.9-8.44-8.44-2.64-2.64-5.81-5.81-4.2-4.2s-1-1-1-1.06S3.38,57.6,3.5,57.48a7.67,7.67,0,0,1-1.19-8.57,8,8,0,0,1,1.53-2.14l5.4-5.4Z"/><path class="cls-92" d="M41.51,8.8,47,3.35a7.71,7.71,0,0,1,10.9,0L63.31,8.8l10.9,10.9,5.46,5.46a7.71,7.71,0,0,0,10.9,0L96,19.71,106.93,8.8l5.45-5.45a7.71,7.71,0,0,1,10.9,0L166.89,47a7.71,7.71,0,0,1,0,10.9l-5.45,5.45L156,68.77a7.71,7.71,0,0,1-10.9,0L123.27,47a7.71,7.71,0,0,0-10.9,0h0a7.71,7.71,0,0,0,0,10.9l21.81,21.81a7.71,7.71,0,0,1,0,10.9L128.73,96l-5.45,5.45a7.71,7.71,0,0,1-10.9,0L96,85.11l-10.9-10.9-10.9-10.9-10.9-10.9L57.86,47A7.71,7.71,0,0,0,47,47h0a7.71,7.71,0,0,0,0,10.9l5.46,5.46,10.9,10.9,5.45,5.45a7.71,7.71,0,0,1,0,10.9l-10.9,10.9a7.71,7.71,0,0,1-10.9,0L41.51,96l-10.9-10.9L22.2,76.71l-2.63-2.63-5.8-5.8L9.58,64.09,8.54,63c-.06-.11-5.29-5.5-5.19-5.6a7.68,7.68,0,0,1-1.26-8.6,8.13,8.13,0,0,1,1.53-2.15L9,41.28Z"/><path class="cls-93" d="M41.36,8.65,46.81,3.2a7.71,7.71,0,0,1,10.9,0l5.45,5.45,10.9,10.9L79.52,25a7.71,7.71,0,0,0,10.9,0l5.45-5.45L106.78,8.65l5.45-5.45a7.71,7.71,0,0,1,10.9,0l43.61,43.61a7.71,7.71,0,0,1,0,10.9l-5.45,5.45-5.46,5.46a7.71,7.71,0,0,1-10.9,0L123.12,46.81a7.71,7.71,0,0,0-10.9,0h0a7.71,7.71,0,0,0,0,10.9L134,79.52a7.71,7.71,0,0,1,0,10.9l-5.45,5.45-5.45,5.45a7.71,7.71,0,0,1-10.9,0L95.87,85,85,74.06l-10.9-10.9-10.9-10.9L57.71,46.8a7.71,7.71,0,0,0-10.9,0h0a7.71,7.71,0,0,0,0,10.9l5.46,5.46,10.9,10.9,5.45,5.45a7.71,7.71,0,0,1,0,10.9l-10.9,10.9a7.71,7.71,0,0,1-10.9,0l-5.45-5.45L30.46,85l-8.38-8.38L19.45,74l-5.77-5.77L9.5,64,8.46,63c-.05-.09-5.33-5.49-5.26-5.57a7.68,7.68,0,0,1-1.32-8.62,7.41,7.41,0,0,1,1.53-2.16l5.42-5.42Z"/><path class="cls-94" d="M41.21,8.5l5.45-5.45a7.71,7.71,0,0,1,10.9,0L63,8.5l10.9,10.9,5.46,5.46a7.71,7.71,0,0,0,10.9,0l5.45-5.45L106.63,8.5l5.45-5.45a7.71,7.71,0,0,1,10.9,0l43.61,43.61a7.71,7.71,0,0,1,0,10.9L161.14,63l-5.46,5.46a7.71,7.71,0,0,1-10.9,0L123,46.66a7.71,7.71,0,0,0-10.9,0h0a7.71,7.71,0,0,0,0,10.9l21.81,21.81a7.71,7.71,0,0,1,0,10.9l-5.45,5.45L123,101.17a7.71,7.71,0,0,1-10.9,0L95.72,84.81l-10.9-10.9L73.92,63,63,52.11l-5.46-5.46a7.71,7.71,0,0,0-10.9,0h0a7.71,7.71,0,0,0,0,10.9L52.11,63,63,73.92l5.45,5.45a7.71,7.71,0,0,1,0,10.9l-10.9,10.9a7.71,7.71,0,0,1-10.9,0l-5.45-5.45-10.9-10.9L22,76.47l-2.62-2.62-5.76-5.76L9.41,63.92l-1-1c0-.06-5.38-5.48-5.33-5.53a7.73,7.73,0,0,1,.14-10.82L8.62,41.1Z"/><path class="cls-95" d="M41.07,8.36l5.45-5.45a7.71,7.71,0,0,1,10.9,0l5.45,5.45,10.9,10.9,5.46,5.46a7.71,7.71,0,0,0,10.9,0l5.45-5.45L106.49,8.36l5.45-5.45a7.71,7.71,0,0,1,10.9,0l43.61,43.61a7.71,7.71,0,0,1,0,10.9L161,62.87l-5.46,5.46a7.71,7.71,0,0,1-10.9,0L122.83,46.52a7.71,7.71,0,0,0-10.9,0h0a7.71,7.71,0,0,0,0,10.9l21.81,21.81a7.71,7.71,0,0,1,0,10.9l-5.45,5.45L122.84,101a7.71,7.71,0,0,1-10.9,0L95.58,84.67l-10.9-10.9-10.9-10.9L62.88,52l-5.46-5.46a7.71,7.71,0,0,0-10.9,0h0a7.71,7.71,0,0,0,0,10.9L52,62.88l10.9,10.9,5.45,5.45a7.71,7.71,0,0,1,0,10.9L57.42,101a7.71,7.71,0,0,1-10.9,0l-5.45-5.45-10.9-10.9-8.34-8.34-2.61-2.61L13.48,68,9.33,63.84l-1-1s-5.41-5.47-5.38-5.49a7.71,7.71,0,0,1-1.47-8.69A7.85,7.85,0,0,1,3,46.45L8.41,41Z"/><path class="cls-96" d="M166.3,46.37a7.71,7.71,0,0,1,0,10.9l-5.45,5.45-5.46,5.46a7.71,7.71,0,0,1-10.9,0L122.68,46.37a7.71,7.71,0,0,0-10.9,10.9l21.81,21.81a7.71,7.71,0,0,1,0,10.9l-5.45,5.45-5.45,5.45a7.71,7.71,0,0,1-10.9,0L95.43,84.52l-10.9-10.9-10.9-10.9-10.9-10.9-5.46-5.46a7.71,7.71,0,0,0-10.9,0h0a7.71,7.71,0,0,0,0,10.9l5.46,5.46,10.9,10.9,5.45,5.45a7.71,7.71,0,0,1,0,10.9l-10.9,10.9a7.71,7.71,0,0,1-10.9,0l-5.45-5.45L30,84.53,19.11,73.62,8.21,62.72,2.76,57.27a7.71,7.71,0,0,1,0-10.9l5.45-5.45L40.92,8.21l5.45-5.45a7.71,7.71,0,0,1,10.9,0l5.45,5.45,10.9,10.9,5.46,5.46a7.71,7.71,0,0,0,10.9,0l5.45-5.45L106.34,8.21l5.45-5.45a7.71,7.71,0,0,1,10.9,0Z"/><path class="cls-97" d="M166.3,46.37a7.71,7.71,0,0,1,0,10.9l-5.45,5.45-5.46,5.46a7.71,7.71,0,0,1-10.9,0L122.68,46.37a7.71,7.71,0,0,0-10.9,0h0a7.71,7.71,0,0,0,0,10.9l21.81,21.81a7.71,7.71,0,0,1,0,10.9l-5.45,5.45-5.45,5.45a7.71,7.71,0,0,1-10.9,0L95.43,84.52l-10.9-10.9-10.9-10.9-10.9-10.9-5.46-5.46a7.71,7.71,0,0,0-10.9,0h0a7.71,7.71,0,0,0,0,10.9l5.46,5.46,10.9,10.9,5.45,5.45a7.71,7.71,0,0,1,0,10.9l-10.9,10.9a7.71,7.71,0,0,1-10.9,0l-5.45-5.45L30,84.53,19.11,73.62,8.21,62.72,2.76,57.27a7.71,7.71,0,0,1,0-10.9l5.45-5.45L40.92,8.21l5.45-5.45a7.71,7.71,0,0,1,10.9,0l5.45,5.45,10.9,10.9,5.46,5.46a7.71,7.71,0,0,0,10.9,0l5.45-5.45L106.34,8.21l5.45-5.45a7.71,7.71,0,0,1,10.9,0Z"/></svg>